<svg xmlns="http://www.w3.org/2000/svg" xmlns:xlink="http://www.w3.org/1999/xlink" viewBox="0 0 1268.43 524.44"><defs><style>.cls-1{fill:none;}.cls-2{isolation:isolate;}.cls-3{clip-path:url(#clip-path);}.cls-4{fill:url(#radial-gradient);}.cls-5{clip-path:url(#clip-path-2);}.cls-110,.cls-33,.cls-34,.cls-35,.cls-36,.cls-6{mix-blend-mode:multiply;}.cls-7{fill:url(#radial-gradient-2);}.cls-8{fill:url(#radial-gradient-3);}.cls-9{fill:url(#radial-gradient-4);}.cls-10{fill:url(#radial-gradient-5);}.cls-11{fill:url(#radial-gradient-6);}.cls-12{fill:url(#radial-gradient-7);}.cls-13{fill:url(#radial-gradient-8);}.cls-14{fill:url(#radial-gradient-9);}.cls-15{fill:url(#radial-gradient-10);}.cls-16{fill:url(#radial-gradient-11);}.cls-17{fill:url(#radial-gradient-12);}.cls-18{fill:url(#radial-gradient-13);}.cls-19{fill:url(#radial-gradient-14);}.cls-20{fill:url(#linear-gradient);}.cls-21{fill:url(#linear-gradient-2);}.cls-22{fill:url(#linear-gradient-3);}.cls-23{fill:url(#linear-gradient-4);}.cls-24{fill:url(#linear-gradient-5);}.cls-25{fill:url(#linear-gradient-6);}.cls-26{fill:url(#linear-gradient-7);}.cls-27{fill:url(#linear-gradient-8);}.cls-28{fill:url(#linear-gradient-9);}.cls-29{fill:url(#linear-gradient-10);}.cls-30{fill:url(#linear-gradient-11);}.cls-31{fill:url(#linear-gradient-12);}.cls-32{fill:url(#linear-gradient-13);}.cls-109,.cls-33,.cls-34,.cls-35,.cls-36{opacity:0.77;}.cls-33{fill:url(#radial-gradient-15);}.cls-34{fill:url(#radial-gradient-16);}.cls-35{fill:url(#radial-gradient-17);}.cls-36{fill:url(#radial-gradient-18);}.cls-37{fill:#eaeaea;}.cls-38{fill:url(#linear-gradient-14);}.cls-39{fill:url(#linear-gradient-15);}.cls-40{fill:url(#linear-gradient-16);}.cls-41{fill:url(#linear-gradient-17);}.cls-42{fill:url(#linear-gradient-18);}.cls-43{fill:url(#linear-gradient-19);}.cls-44{fill:url(#linear-gradient-20);}.cls-45{fill:url(#linear-gradient-21);}.cls-46{fill:url(#linear-gradient-22);}.cls-47{fill:url(#linear-gradient-23);}.cls-48{fill:url(#linear-gradient-24);}.cls-49{fill:url(#linear-gradient-25);}.cls-50{fill:url(#linear-gradient-26);}.cls-51{fill:url(#linear-gradient-27);}.cls-52{fill:url(#linear-gradient-28);}.cls-53{fill:url(#linear-gradient-29);}.cls-54{fill:url(#linear-gradient-30);}.cls-55{fill:url(#linear-gradient-31);}.cls-56{fill:url(#linear-gradient-32);}.cls-57{fill:url(#linear-gradient-33);}.cls-58{fill:url(#linear-gradient-34);}.cls-59{fill:url(#linear-gradient-35);}.cls-60{fill:url(#linear-gradient-36);}.cls-61{fill:url(#linear-gradient-37);}.cls-62{fill:url(#linear-gradient-38);}.cls-63{fill:url(#linear-gradient-39);}.cls-64{fill:url(#linear-gradient-40);}.cls-65{fill:url(#linear-gradient-41);}.cls-66{fill:url(#linear-gradient-42);}.cls-67{fill:url(#linear-gradient-43);}.cls-68{fill:url(#linear-gradient-44);}.cls-69{fill:url(#linear-gradient-45);}.cls-70{fill:url(#linear-gradient-46);}.cls-71{fill:url(#linear-gradient-47);}.cls-72{fill:url(#linear-gradient-48);}.cls-73{fill:url(#linear-gradient-49);}.cls-74{fill:url(#linear-gradient-50);}.cls-75{fill:url(#linear-gradient-51);}.cls-76{fill:url(#linear-gradient-52);}.cls-77{fill:url(#linear-gradient-53);}.cls-78{fill:url(#linear-gradient-54);}.cls-79{fill:url(#linear-gradient-55);}.cls-80{fill:url(#linear-gradient-56);}.cls-81{fill:url(#linear-gradient-57);}.cls-82{fill:#fff;}.cls-83{fill:#f7f7f7;}.cls-84{fill:#efefef;}.cls-85{fill:#e7e7e7;}.cls-86{fill:#e0e0e0;}.cls-87{fill:#d8d8d8;}.cls-88{fill:#d0d0d0;}.cls-89{fill:#c8c8c8;}.cls-90{fill:silver;}.cls-91{fill:#b8b8b8;}.cls-92{fill:#b1b1b1;}.cls-93{fill:#a9a9a9;}.cls-94{fill:#a1a1a1;}.cls-95{fill:#999;}.cls-96{fill:#919191;}.cls-97{fill:#898989;}.cls-98{fill:#818181;}.cls-99{fill:#7a7a7a;}.cls-100{fill:#727272;}.cls-101{fill:#6a6a6a;}.cls-102{fill:#626262;}.cls-103{fill:#5a5a5a;}.cls-104{fill:#525252;}.cls-105{fill:#4b4b4b;}.cls-106{fill:#434343;}.cls-107{fill:#3b3b3b;}.cls-108{fill:#333;}.cls-109{mix-blend-mode:screen;fill:url(#radial-gradient-19);}.cls-110{fill:url(#radial-gradient-20);}.cls-111{fill:#71cddd;}.cls-112{fill:#231f20;}.cls-113,.cls-114{fill:#fff3a2;}.cls-114,.cls-118,.cls-120{font-size:26.79px;}.cls-114,.cls-116,.cls-118,.cls-120{font-family:MyriadPro-Regular, Myriad Pro;}.cls-115,.cls-116{fill:#ff4a00;}.cls-116{font-size:37.87px;}.cls-117,.cls-118{fill:#ff2e18;}.cls-119,.cls-120{fill:red;}</style><clipPath id="clip-path"><path class="cls-1" d="M578,180.22C623.52,316,550.43,463.09,414.48,508.66S131.54,481.11,86,345.16,113.62,62.25,249.53,16.65,532.37,44.3,578,180.22Z"/></clipPath><radialGradient id="radial-gradient" cx="335.19" cy="258.47" r="510.53" gradientTransform="translate(-19.68 -19.36) scale(1.05 1.08)" gradientUnits="userSpaceOnUse"><stop offset="0" stop-color="#0076cb"/><stop offset="0.07" stop-color="#0167b3"/><stop offset="0.23" stop-color="#044b85"/><stop offset="0.39" stop-color="#06345f"/><stop offset="0.55" stop-color="#072142"/><stop offset="0.7" stop-color="#08142d"/><stop offset="0.86" stop-color="#090d20"/><stop offset="1" stop-color="#090a1c"/></radialGradient><clipPath id="clip-path-2"><rect class="cls-1" x="-56.47" y="-4.94" width="774.41" height="531.57"/></clipPath><radialGradient id="radial-gradient-2" cx="199.3" cy="271.83" r="40.2" gradientTransform="translate(-19.68 -19.36) scale(1.05 1.08)" gradientUnits="userSpaceOnUse"><stop offset="0" stop-color="#025fbd"/><stop offset="0.03" stop-color="#025ab3"/><stop offset="0.2" stop-color="#044285"/><stop offset="0.36" stop-color="#062e5f"/><stop offset="0.53" stop-color="#071e42"/><stop offset="0.69" stop-color="#08132d"/><stop offset="0.85" stop-color="#090c20"/><stop offset="1" stop-color="#090a1c"/></radialGradient><radialGradient id="radial-gradient-3" cx="525.58" cy="234.79" r="79.45" xlink:href="#radial-gradient-2"/><radialGradient id="radial-gradient-4" cx="479.43" cy="260.85" r="46.09" xlink:href="#radial-gradient-2"/><radialGradient id="radial-gradient-5" cx="551.16" cy="326.23" r="99.54" xlink:href="#radial-gradient-2"/><radialGradient id="radial-gradient-6" cx="462.12" cy="216.92" r="33.87" xlink:href="#radial-gradient-2"/><radialGradient id="radial-gradient-7" cx="190.19" cy="216.92" r="46.63" xlink:href="#radial-gradient-2"/><radialGradient id="radial-gradient-8" cx="179.99" cy="90.51" r="139.58" xlink:href="#radial-gradient-2"/><radialGradient id="radial-gradient-9" cx="340.63" cy="411.5" r="274.34" xlink:href="#radial-gradient-2"/><radialGradient id="radial-gradient-10" cx="333.83" cy="97.82" r="63.54" xlink:href="#radial-gradient-2"/><radialGradient id="radial-gradient-11" cx="344.81" cy="97.82" r="63.54" xlink:href="#radial-gradient-2"/><radialGradient id="radial-gradient-12" cx="520.04" cy="90.48" r="153.16" xlink:href="#radial-gradient-2"/><radialGradient id="radial-gradient-13" cx="559.95" cy="250.55" r="117.72" xlink:href="#radial-gradient-2"/><radialGradient id="radial-gradient-14" cx="110.43" cy="280.86" r="122.72" xlink:href="#radial-gradient-2"/><linearGradient id="linear-gradient" x1="129.33" y1="272.01" x2="248.01" y2="272.01" gradientUnits="userSpaceOnUse"><stop offset="0" stop-color="#f2f2f2"/><stop offset="0.05" stop-color="#eee"/><stop offset="0.11" stop-color="#e3e3e3"/><stop offset="0.16" stop-color="#d0d0d0"/><stop offset="0.21" stop-color="#b5b5b5"/><stop offset="0.26" stop-color="#929292"/><stop offset="0.28" stop-color="gray"/><stop offset="0.34" stop-color="#848484"/><stop offset="0.39" stop-color="#919191"/><stop offset="0.45" stop-color="#a5a5a5"/><stop offset="0.51" stop-color="#c3c3c3"/><stop offset="0.57" stop-color="#e8e8e8"/><stop offset="0.58" stop-color="#f2f2f2"/><stop offset="0.59" stop-color="#ebebeb"/><stop offset="0.71" stop-color="#b1b1b1"/><stop offset="0.79" stop-color="#8e8e8e"/><stop offset="0.83" stop-color="gray"/><stop offset="0.86" stop-color="#848484"/><stop offset="0.89" stop-color="#919191"/><stop offset="0.93" stop-color="#a5a5a5"/><stop offset="0.96" stop-color="#c3c3c3"/><stop offset="0.99" stop-color="#e8e8e8"/><stop offset="1" stop-color="#f2f2f2"/></linearGradient><linearGradient id="linear-gradient-2" x1="413.47" y1="232.13" x2="646.08" y2="232.13" xlink:href="#linear-gradient"/><linearGradient id="linear-gradient-3" x1="413.47" y1="260.18" x2="549.59" y2="260.18" xlink:href="#linear-gradient"/><linearGradient id="linear-gradient-4" x1="413.47" y1="330.55" x2="699.57" y2="330.55" xlink:href="#linear-gradient"/><linearGradient id="linear-gradient-5" x1="413.47" y1="212.9" x2="513.39" y2="212.9" xlink:href="#linear-gradient"/><linearGradient id="linear-gradient-6" x1="110.29" y1="212.9" x2="248.01" y2="212.9" xlink:href="#linear-gradient"/><linearGradient id="linear-gradient-7" x1="-14.53" y1="76.83" x2="351.5" y2="76.83" xlink:href="#linear-gradient"/><linearGradient id="linear-gradient-8" x1="-56.47" y1="422.34" x2="729.32" y2="422.34" xlink:href="#linear-gradient"/><linearGradient id="linear-gradient-9" x1="295.65" y1="84.7" x2="362.98" y2="84.7" xlink:href="#linear-gradient"/><linearGradient id="linear-gradient-10" x1="307.13" y1="84.7" x2="374.46" y2="84.7" xlink:href="#linear-gradient"/><linearGradient id="linear-gradient-11" x1="318.61" y1="76.79" x2="729.36" y2="76.79" xlink:href="#linear-gradient"/><linearGradient id="linear-gradient-12" x1="413.47" y1="249.09" x2="717.94" y2="249.09" xlink:href="#linear-gradient"/><linearGradient id="linear-gradient-13" x1="-56.47" y1="281.72" x2="248.01" y2="281.72" xlink:href="#linear-gradient"/><radialGradient id="radial-gradient-15" cx="13158.48" cy="301.82" r="125.97" gradientTransform="translate(-2475.63 21.35) scale(0.21 0.79)" gradientUnits="userSpaceOnUse"><stop offset="0.01"/><stop offset="0.15" stop-color="#373737"/><stop offset="0.32" stop-color="#737373"/><stop offset="0.49" stop-color="#a5a5a5"/><stop offset="0.64" stop-color="#ccc"/><stop offset="0.78" stop-color="#e8e8e8"/><stop offset="0.91" stop-color="#f9f9f9"/><stop offset="1" stop-color="#fff"/></radialGradient><radialGradient id="radial-gradient-16" cx="13902.3" cy="301.82" r="125.97" xlink:href="#radial-gradient-15"/><radialGradient id="radial-gradient-17" cx="-2616.04" cy="4413.63" r="125.97" gradientTransform="translate(-3070.79 -218.41) rotate(-90) scale(0.21 0.77)" xlink:href="#radial-gradient-15"/><radialGradient id="radial-gradient-18" cx="-1872.22" cy="4413.63" r="125.97" gradientTransform="translate(-3070.79 -218.41) rotate(-90) scale(0.21 0.77)" xlink:href="#radial-gradient-15"/><linearGradient id="linear-gradient-14" x1="273.33" y1="176.88" x2="273.33" y2="193.18" gradientUnits="userSpaceOnUse"><stop offset="0" stop-color="#f2f2f2"/><stop offset="0.1" stop-color="#eee"/><stop offset="0.19" stop-color="#e3e3e3"/><stop offset="0.28" stop-color="#d0d0d0"/><stop offset="0.37" stop-color="#b5b5b5"/><stop offset="0.45" stop-color="#929292"/><stop offset="0.54" stop-color="#686868"/><stop offset="0.54" stop-color="#666"/><stop offset="0.62" stop-color="#6a6a6a"/><stop offset="0.7" stop-color="#777"/><stop offset="0.77" stop-color="#8b8b8b"/><stop offset="0.85" stop-color="#a9a9a9"/><stop offset="0.93" stop-color="#cecece"/><stop offset="1" stop-color="#f2f2f2"/></linearGradient><linearGradient id="linear-gradient-15" x1="284.81" y1="176.88" x2="284.81" y2="193.18" xlink:href="#linear-gradient-14"/><linearGradient id="linear-gradient-16" x1="296.29" y1="176.88" x2="296.29" y2="193.18" xlink:href="#linear-gradient-14"/><linearGradient id="linear-gradient-17" x1="307.77" y1="176.88" x2="307.77" y2="193.18" xlink:href="#linear-gradient-14"/><linearGradient id="linear-gradient-18" x1="319.26" y1="176.88" x2="319.26" y2="193.18" xlink:href="#linear-gradient-14"/><linearGradient id="linear-gradient-19" x1="330.74" y1="176.88" x2="330.74" y2="193.18" xlink:href="#linear-gradient-14"/><linearGradient id="linear-gradient-20" x1="342.22" y1="176.88" x2="342.22" y2="193.18" xlink:href="#linear-gradient-14"/><linearGradient id="linear-gradient-21" x1="353.7" y1="176.88" x2="353.7" y2="193.18" xlink:href="#linear-gradient-14"/><linearGradient id="linear-gradient-22" x1="365.18" y1="176.88" x2="365.18" y2="193.18" xlink:href="#linear-gradient-14"/><linearGradient id="linear-gradient-23" x1="376.66" y1="176.88" x2="376.66" y2="193.18" xlink:href="#linear-gradient-14"/><linearGradient id="linear-gradient-24" x1="388.14" y1="176.88" x2="388.14" y2="193.18" xlink:href="#linear-gradient-14"/><linearGradient id="linear-gradient-25" x1="273.33" y1="398.27" x2="273.33" y2="414.57" gradientTransform="matrix(1, 0, 0, -1, 0, 743.08)" xlink:href="#linear-gradient-14"/><linearGradient id="linear-gradient-26" x1="284.81" y1="398.27" x2="284.81" y2="414.57" gradientTransform="matrix(1, 0, 0, -1, 0, 743.08)" xlink:href="#linear-gradient-14"/><linearGradient id="linear-gradient-27" x1="296.29" y1="398.27" x2="296.29" y2="414.57" gradientTransform="matrix(1, 0, 0, -1, 0, 743.08)" xlink:href="#linear-gradient-14"/><linearGradient id="linear-gradient-28" x1="307.77" y1="398.27" x2="307.77" y2="414.57" gradientTransform="matrix(1, 0, 0, -1, 0, 743.08)" xlink:href="#linear-gradient-14"/><linearGradient id="linear-gradient-29" x1="319.26" y1="398.27" x2="319.26" y2="414.57" gradientTransform="matrix(1, 0, 0, -1, 0, 743.08)" xlink:href="#linear-gradient-14"/><linearGradient id="linear-gradient-30" x1="330.74" y1="398.27" x2="330.74" y2="414.57" gradientTransform="matrix(1, 0, 0, -1, 0, 743.08)" xlink:href="#linear-gradient-14"/><linearGradient id="linear-gradient-31" x1="342.22" y1="398.27" x2="342.22" y2="414.57" gradientTransform="matrix(1, 0, 0, -1, 0, 743.08)" xlink:href="#linear-gradient-14"/><linearGradient id="linear-gradient-32" x1="353.7" y1="398.27" x2="353.7" y2="414.57" gradientTransform="matrix(1, 0, 0, -1, 0, 743.08)" xlink:href="#linear-gradient-14"/><linearGradient id="linear-gradient-33" x1="365.18" y1="398.27" x2="365.18" y2="414.57" gradientTransform="matrix(1, 0, 0, -1, 0, 743.08)" xlink:href="#linear-gradient-14"/><linearGradient id="linear-gradient-34" x1="376.66" y1="398.27" x2="376.66" y2="414.57" gradientTransform="matrix(1, 0, 0, -1, 0, 743.08)" xlink:href="#linear-gradient-14"/><linearGradient id="linear-gradient-35" x1="388.14" y1="398.27" x2="388.14" y2="414.57" gradientTransform="matrix(1, 0, 0, -1, 0, 743.08)" xlink:href="#linear-gradient-14"/><linearGradient id="linear-gradient-36" x1="-3012.27" y1="3397.66" x2="-3012.27" y2="3413.48" gradientTransform="translate(3268.42 -3084.67)" xlink:href="#linear-gradient-14"/><linearGradient id="linear-gradient-37" x1="-3000.45" y1="3397.66" x2="-3000.45" y2="3413.48" gradientTransform="translate(3256.6 -3096.49)" xlink:href="#linear-gradient-14"/><linearGradient id="linear-gradient-38" x1="-2988.63" y1="3397.66" x2="-2988.63" y2="3413.48" gradientTransform="translate(3244.78 -3108.31)" xlink:href="#linear-gradient-14"/><linearGradient id="linear-gradient-39" x1="-2976.81" y1="3397.66" x2="-2976.81" y2="3413.48" gradientTransform="translate(3232.96 -3120.13)" xlink:href="#linear-gradient-14"/><linearGradient id="linear-gradient-40" x1="-2964.98" y1="3397.66" x2="-2964.98" y2="3413.48" gradientTransform="translate(3221.14 -3131.95)" xlink:href="#linear-gradient-14"/><linearGradient id="linear-gradient-41" x1="-2953.16" y1="3397.66" x2="-2953.16" y2="3413.48" gradientTransform="translate(3209.32 -3143.77)" xlink:href="#linear-gradient-14"/><linearGradient id="linear-gradient-42" x1="-2941.34" y1="3397.66" x2="-2941.34" y2="3413.48" gradientTransform="translate(3197.49 -3155.6)" xlink:href="#linear-gradient-14"/><linearGradient id="linear-gradient-43" x1="-2929.52" y1="3397.66" x2="-2929.52" y2="3413.48" gradientTransform="translate(3185.67 -3167.42)" xlink:href="#linear-gradient-14"/><linearGradient id="linear-gradient-44" x1="-2917.7" y1="3397.66" x2="-2917.7" y2="3413.48" gradientTransform="translate(3173.85 -3179.24)" xlink:href="#linear-gradient-14"/><linearGradient id="linear-gradient-45" x1="-2905.88" y1="3397.66" x2="-2905.88" y2="3413.48" gradientTransform="translate(3162.03 -3191.06)" xlink:href="#linear-gradient-14"/><linearGradient id="linear-gradient-46" x1="-2894.05" y1="3397.66" x2="-2894.05" y2="3413.48" gradientTransform="translate(3150.21 -3202.88)" xlink:href="#linear-gradient-14"/><linearGradient id="linear-gradient-47" x1="-3012.27" y1="-2354.11" x2="-3012.27" y2="-2338.28" gradientTransform="matrix(1, 0, 0, -1, 3417.59, -2027.19)" xlink:href="#linear-gradient-14"/><linearGradient id="linear-gradient-48" x1="-3000.45" y1="-2354.11" x2="-3000.45" y2="-2338.28" gradientTransform="matrix(1, 0, 0, -1, 3405.77, -2039.01)" xlink:href="#linear-gradient-14"/><linearGradient id="linear-gradient-49" x1="-2988.63" y1="-2354.11" x2="-2988.63" y2="-2338.28" gradientTransform="matrix(1, 0, 0, -1, 3393.95, -2050.83)" xlink:href="#linear-gradient-14"/><linearGradient id="linear-gradient-50" x1="-2976.81" y1="-2354.11" x2="-2976.81" y2="-2338.28" gradientTransform="matrix(1, 0, 0, -1, 3382.13, -2062.65)" xlink:href="#linear-gradient-14"/><linearGradient id="linear-gradient-51" x1="-2964.98" y1="-2354.11" x2="-2964.98" y2="-2338.28" gradientTransform="matrix(1, 0, 0, -1, 3370.3, -2074.47)" xlink:href="#linear-gradient-14"/><linearGradient id="linear-gradient-52" x1="-2953.16" y1="-2354.11" x2="-2953.16" y2="-2338.28" gradientTransform="matrix(1, 0, 0, -1, 3358.48, -2086.29)" xlink:href="#linear-gradient-14"/><linearGradient id="linear-gradient-53" x1="-2941.34" y1="-2354.11" x2="-2941.34" y2="-2338.28" gradientTransform="matrix(1, 0, 0, -1, 3346.66, -2098.12)" xlink:href="#linear-gradient-14"/><linearGradient id="linear-gradient-54" x1="-2929.52" y1="-2354.11" x2="-2929.52" y2="-2338.28" gradientTransform="matrix(1, 0, 0, -1, 3334.84, -2109.94)" xlink:href="#linear-gradient-14"/><linearGradient id="linear-gradient-55" x1="-2917.7" y1="-2354.11" x2="-2917.7" y2="-2338.28" gradientTransform="matrix(1, 0, 0, -1, 3323.02, -2121.76)" xlink:href="#linear-gradient-14"/><linearGradient id="linear-gradient-56" x1="-2905.88" y1="-2354.11" x2="-2905.88" y2="-2338.28" gradientTransform="matrix(1, 0, 0, -1, 3311.2, -2133.58)" xlink:href="#linear-gradient-14"/><linearGradient id="linear-gradient-57" x1="-2894.05" y1="-2354.11" x2="-2894.05" y2="-2338.28" gradientTransform="matrix(1, 0, 0, -1, 3299.37, -2145.4)" xlink:href="#linear-gradient-14"/><radialGradient id="radial-gradient-19" cx="337.91" cy="338.26" r="141" gradientTransform="translate(-19.68 -19.36) scale(1.05 1.08)" gradientUnits="userSpaceOnUse"><stop offset="0" stop-color="#fff"/><stop offset="0.04" stop-color="#d5d5d5"/><stop offset="0.1" stop-color="#a9a9a9"/><stop offset="0.16" stop-color="gray"/><stop offset="0.22" stop-color="#5d5d5d"/><stop offset="0.29" stop-color="#404040"/><stop offset="0.37" stop-color="#292929"/><stop offset="0.45" stop-color="#161616"/><stop offset="0.56" stop-color="#0a0a0a"/><stop offset="0.69" stop-color="#020202"/><stop offset="0.99"/></radialGradient><radialGradient id="radial-gradient-20" cx="336.36" cy="257.62" r="328.29" gradientUnits="userSpaceOnUse"><stop offset="0.04" stop-color="#fff"/><stop offset="0.33" stop-color="#272761"/><stop offset="0.93" stop-color="#22225d"/></radialGradient></defs><title>Artboard 2 copy</title><g class="cls-2"><g id="Layer_1" data-name="Layer 1"><g class="cls-3"><rect class="cls-4" x="-56.47" y="-4.94" width="774.41" height="531.57"/><g class="cls-5"><g class="cls-6"><path class="cls-7" d="M132.76,269.71a3.54,3.54,0,1,0,3.37,4.2H248v-1.33H136.13A3.47,3.47,0,0,0,132.76,269.71Zm0,5.74a2.21,2.21,0,1,1,2.14-2.21A2.18,2.18,0,0,1,132.76,275.45Z"/><path class="cls-8" d="M577.87,220.67h61.41a3.54,3.54,0,1,0,0-1.33h-62.1l-19,29.6H413.47v1.33H558.89Zm64.78-2.87a2.21,2.21,0,1,1-2.14,2.2A2.18,2.18,0,0,1,642.65,217.8Z"/><path class="cls-9" d="M413.47,262.09H542.79a3.54,3.54,0,1,0,0-1.33H413.47Zm132.69-2.87a2.2,2.2,0,1,1-2.14,2.2A2.17,2.17,0,0,1,546.16,259.22Z"/><path class="cls-10" d="M413.47,309.37h36.62l36.64,54.83.19.29H692.78a3.53,3.53,0,1,0,0-1.33H487.6l-35.94-53.79H460l32.78,48h85.49a3.54,3.54,0,1,0,0-1.33H493.44l-32.78-48h-9.89l-7.7-11.53-.2-.29h-29.4v1.33h28.72l7,10.49H413.47Zm282.67,52.26a2.2,2.2,0,1,1-2.14,2.2A2.17,2.17,0,0,1,696.14,361.63ZM581.63,354.5a2.21,2.21,0,1,1-2.14,2.2A2.18,2.18,0,0,1,581.63,354.5Z"/><path class="cls-11" d="M510,217.67a3.54,3.54,0,1,0-3.36-4.2H413.47v1.33H506.6A3.46,3.46,0,0,0,510,217.67Zm0-5.74a2.21,2.21,0,1,1-2.13,2.21A2.18,2.18,0,0,1,510,211.93Z"/><path class="cls-12" d="M113.72,210.6a3.54,3.54,0,0,0,0,7.07,3.46,3.46,0,0,0,3.36-2.87H248v-1.33H117.08A3.46,3.46,0,0,0,113.72,210.6Zm0,5.74a2.21,2.21,0,1,1,2.14-2.2A2.18,2.18,0,0,1,113.72,216.34Z"/><path class="cls-13" d="M108.24,154.47,75.35,111.71l-.19-.25H-7.71a3.46,3.46,0,0,0-3.39-3.12,3.49,3.49,0,0,0-3.43,3.53,3.49,3.49,0,0,0,3.43,3.54,3.46,3.46,0,0,0,3.3-2.62H74.53l32.89,42.75.2.25h85.74l-5.54,7.69H108.24L75.35,120.73l-.19-.25H51.44a3.53,3.53,0,1,0-.11,1.32h23.2l32.89,42.76.2.25h80.85L234,101.71h38.7v74.53H274V100.38H163.85l37-38.81h83.33V176.24h1.29v-115l66-47V-4.36h-1.29V13.28h-205l-31-33.38-.93.91,31.22,33.6.19.2H348.78L284.61,60.25H200.29L162,100.38h-53.8L75.35,57.63l-.19-.25H29.08L.57,19.36a3.61,3.61,0,0,0,1.07-2.55,3.49,3.49,0,0,0-3.43-3.53,3.48,3.48,0,0,0-3.43,3.53,3.48,3.48,0,0,0,3.43,3.53,3.25,3.25,0,0,0,1.28-.26l29,38.63H74.53l32.89,42.75.2.25H232.37l-5.54,7.69H108.24L75.35,66.64l-.19-.25H-7.73a3.46,3.46,0,0,0-3.37-2.91A3.49,3.49,0,0,0-14.53,67a3.49,3.49,0,0,0,3.43,3.54,3.46,3.46,0,0,0,3.36-2.83H74.53l32.89,42.75.2.25H225.87l-5.54,7.69H108.24L75.35,75.66l-.19-.25H-7.73a3.45,3.45,0,0,0-3.37-3A3.48,3.48,0,0,0-14.53,76a3.49,3.49,0,0,0,3.43,3.53,3.47,3.47,0,0,0,3.35-2.78H74.53l32.89,42.75.2.25H219.37l-5.54,7.68H108.24L75.35,84.67l-.19-.25H-7.72a3.47,3.47,0,0,0-3.38-3A3.48,3.48,0,0,0-14.53,85a3.48,3.48,0,0,0,3.43,3.53,3.45,3.45,0,0,0,3.34-2.74H74.53l32.89,42.75.2.25H212.87l-5.55,7.69H108.24L75.35,93.69l-.19-.26H-7.72a3.45,3.45,0,0,0-3.38-3,3.48,3.48,0,0,0-3.43,3.53,3.48,3.48,0,0,0,3.43,3.53,3.44,3.44,0,0,0,3.32-2.7H74.53l32.89,42.75.2.26h98.74l-5.8,8v-.36H108.24L75.35,102.7l-.19-.25H-7.71a3.47,3.47,0,0,0-3.39-3.08,3.49,3.49,0,0,0-3.43,3.53,3.48,3.48,0,0,0,3.43,3.53,3.44,3.44,0,0,0,3.31-2.65H74.53l32.89,42.75.2.25h92.24l-5.54,7.69ZM-11.1,114.08a2.18,2.18,0,0,1-2.14-2.21,2.18,2.18,0,0,1,2.14-2.2A2.18,2.18,0,0,1-9,111.87,2.18,2.18,0,0,1-11.1,114.08Zm59.14,9a2.21,2.21,0,1,1,2.14-2.2A2.17,2.17,0,0,1,48,123.05Zm-52-106.24a2.18,2.18,0,0,1,2.14-2.2,2.18,2.18,0,0,1,2.14,2.2A2.18,2.18,0,0,1-1.79,19,2.18,2.18,0,0,1-3.93,16.81ZM-11.1,69.22A2.18,2.18,0,0,1-13.24,67a2.18,2.18,0,0,1,2.14-2.2A2.18,2.18,0,0,1-9,67,2.18,2.18,0,0,1-11.1,69.22Zm0,9A2.18,2.18,0,0,1-13.24,76a2.18,2.18,0,0,1,2.14-2.21A2.18,2.18,0,0,1-9,76,2.18,2.18,0,0,1-11.1,78.19Zm0,9A2.18,2.18,0,0,1-13.24,85a2.17,2.17,0,0,1,2.14-2.2A2.17,2.17,0,0,1-9,85,2.18,2.18,0,0,1-11.1,87.16Zm0,9a2.18,2.18,0,0,1-2.14-2.2,2.18,2.18,0,0,1,2.14-2.2A2.18,2.18,0,0,1-9,93.93,2.18,2.18,0,0,1-11.1,96.13Zm0,9a2.18,2.18,0,0,1-2.14-2.21,2.18,2.18,0,0,1,2.14-2.2A2.18,2.18,0,0,1-9,102.9,2.18,2.18,0,0,1-11.1,105.11Z"/><path class="cls-14" d="M661.18,411.84H589.07l-62-36H474V363.61l-31.14-43.74H413.47v1.33h28.74l30.5,42.85v11.82H388.79V346.6H387.5v29.27H377.31V346.6H376v30.6H387.5V393H365.83V346.6h-1.29V393h-10.2V346.6h-1.29V393H342.86V346.6h-1.29V393H331.38V346.6h-1.29V393H319.9V346.6h-1.29V393H296.94V381.72h11.48V346.6h-1.29v33.79H296.94V346.6h-1.29V393H285.46V346.6h-1.29v47.72h11.48v7.36h45.92V409H165.4l27.25-31.77H274V346.6h-1.29v29.27H192.07L163.68,409H39a3.54,3.54,0,1,0,0,1.33H345l-5.6,7.27H214.69L171.92,469.2h-91a3.42,3.42,0,0,0-6.79.66,3.49,3.49,0,0,0,3.43,3.54,3.46,3.46,0,0,0,3.36-2.87h91.63l42.78-51.63H338.37L332.13,427H220.53l-42.77,51.63H80.88a3.53,3.53,0,1,0,0,1.32h97.47l42.78-51.62h110l-6.24,8.11h-98.5L183.6,488.07H80.88a3.45,3.45,0,0,0-3.36-2.86,3.53,3.53,0,1,0,3.36,4.19H184.19L227,437.77h96.88l-6.23,8.11H232.21l-42.77,51.63H51.56l-61.89-104H148.43l70.78-72.34H248v-1.33H218.67l-70.78,72.34H-56.47v1.33h29.05l61.88,104H-18.16a3.46,3.46,0,0,0-3.36-2.87,3.49,3.49,0,0,0-3.43,3.53,3.48,3.48,0,0,0,3.43,3.53,3.45,3.45,0,0,0,3.36-2.86H190l.19-.24h0l42.59-51.39h46.27V474.3l62.49,17.81v35h1.29v-36l-62.49-17.81V447.21h37.87L340,418.9h.31v-.41l6.3-8.19h6.42v88.54h60.12l20.19,20v8.27h1.29V400.35H388.79v-6h53.1v132.8h1.29V458h83.61l61.94,36h71.16V527.3h1.29V413.9l67.32,56.48.82-1-68.14-57.16Zm-625.57,0a2.21,2.21,0,1,1,2.14-2.21A2.18,2.18,0,0,1,35.61,411.84Zm41.91,60.23a2.21,2.21,0,1,1,2.14-2.21A2.18,2.18,0,0,1,77.52,472.07Zm0,9.43a2.2,2.2,0,1,1,2.14-2.2A2.17,2.17,0,0,1,77.52,481.5Zm0,9.44a2.21,2.21,0,1,1,2.14-2.2A2.18,2.18,0,0,1,77.52,490.94Zm-99,9.43a2.17,2.17,0,0,1-2.14-2.2,2.18,2.18,0,0,1,2.14-2.2,2.18,2.18,0,0,1,2.14,2.2A2.17,2.17,0,0,1-21.52,500.37Zm-4.39-106.83h14.07L50,497.51H36Zm614.64,19.63h71.16V427H589.07l-62.76-36.44V391h-33l-18-13.79h51.48ZM527.6,425.65l61.13,35.5h71.16v15.1H589.07L527.6,440.56Zm61.47,34.17L527.6,424.13V409.22l61.13,35.5h71.16v15.1Zm0-16.43-61.47-35.7v-14.9l61.13,35.49h71.16v15.11ZM364.54,394.32v6h-10.2v-6Zm68.82,67.94H365.83v-52h7.34v43.85h60.19ZM365.83,409v-7.29H387.5V409Zm-1.29,0h-10.2v-7.29h10.2Zm-11.49-14.65v6H342.86v-6Zm-56.11,6v-6h44.63v6ZM346.32,409h-3.46v-7.29h10.19V409Zm67.37,88.54H354.34V410.3h10.2v53.29h68.82V517Zm19.67-95.83v51.14h-58.9V410.3h14.33v-8.62Zm-45.86-1.33H365.83v-6H387.5Zm1.29-7.36V377.2h84.35l19.75,15.11h33.42v64.4H443.18V393Zm200.28,99.69L527.6,457V442.08l61.13,35.5h71.16v15.1Z"/><polygon class="cls-15" points="295.65 66.51 295.65 146.31 295.65 176.24 296.94 176.24 296.94 146.31 296.94 67.21 362.7 20.44 362.98 20.24 362.98 -4.36 361.69 -4.36 361.69 19.55 295.93 66.31 295.65 66.51"/><polygon class="cls-16" points="307.13 146.31 307.13 176.24 308.42 176.24 308.42 146.31 308.42 73.15 374.46 26.19 374.46 -4.36 373.17 -4.36 373.17 25.49 307.13 72.46 307.13 146.31"/><path class="cls-17" d="M318.61,78.4v97.84h1.29V79.1l65.6-46.65h68.36l37.9,48.86H425.41L419,73l-.19-.25H376v54.71H365.83V91.67a3.41,3.41,0,1,0-1.29,0v35.79h-10.2V91.67a3.42,3.42,0,1,0-1.29,0v35.77H342.86V91.66a3.43,3.43,0,1,0-1.29,0v35.76H330.09v48.82h1.29V128.75h10.19v47.49h1.29V128.75h10.19v47.49h1.29V128.75h10.2v47.49h1.29V128.75H376v47.49h1.29V128.75h64.58v16.9H387.5v30.59h1.29V147h54.39V128.75h68.95L540,162.34h0l.19.23h99.13a3.53,3.53,0,1,0,0-1.32H540.75l-27.48-33.17v-.66h-.55L498,109.62H447.19L441,101.51h62.27L546,153.14h93.29a3.54,3.54,0,1,0,0-1.33H546.59l-42.78-51.63H439.93l-6.23-8.11h75.36l42.77,51.63h87.45a3.53,3.53,0,1,0,0-1.33H552.43L509.65,90.75h-77l-6.23-8.11H514.9l42.77,51.63h57.92L729.36,20.16l-.9-1L615.07,132.94h-56.8L515.49,81.31H493.41l-37.9-48.86H594l68.36-51.56-.76-1.07-68,51.3H385.94V-4.36h-1.29v35.8L318.89,78.21Zm44.56,9.8a2.14,2.14,0,1,1,2.14,2.2A2.18,2.18,0,0,1,363.17,88.2Zm-11.55,0a2.14,2.14,0,1,1,2.14,2.2A2.18,2.18,0,0,1,351.62,88.2Zm-11.54,0a2.14,2.14,0,1,1,2.14,2.2A2.18,2.18,0,0,1,340.08,88.2Zm302.57,71.51a2.2,2.2,0,1,1-2.14,2.2A2.18,2.18,0,0,1,642.65,159.71Zm0-9.44a2.21,2.21,0,1,1-2.14,2.2A2.18,2.18,0,0,1,642.65,150.27Zm0-9.43a2.2,2.2,0,1,1-2.14,2.2A2.17,2.17,0,0,1,642.65,140.84ZM446.37,110.69l.2.26h50.81L511,127.42H377.31V74h40.86l6.3,8.19v.41h.32Z"/><path class="cls-18" d="M580.21,274.09l33.08-43h46.09L680.46,203h37.48v-1.33H543.72l-24.78-38.17h-51L442.2,201.65H413.47V203h29.4l25.75-38.17h49.63l24.33,37.49-16.27,23H413.47v1.33H527L543.7,203H678.82l-5.66,7.56H554.34l-18.49,26.57H413.47v1.33h123L555,211.87H672.16l-13.42,17.89H612.67l-33.08,43H454.18l-11.65-.18H413.47v1.33h28.42V284.4H413.47v1.33h29.71V273.92l10.66.16,45.52,63.11h80.85l33.08-43H636.5a3.45,3.45,0,0,0,3.28,2.58,3.54,3.54,0,0,0,0-7.07,3.46,3.46,0,0,0-3.39,3.16H612.67l-33.08,43H500l-5.54-7.69h85.74l33.08-43h48.14a3.55,3.55,0,1,0-.09-1.33H612.67l-33.08,43H493.51L488,319.16h92.24l33.08-43h82.33a3.44,3.44,0,0,0,3.31,2.66,3.53,3.53,0,1,0-3.39-4H612.67l-33.08,43H487.26v.35l-5.8-8h98.75l33.08-43H695.6a3.54,3.54,0,1,0-.06-1.33H612.67l-33.08,43H480.5L475,301.13H580.21l33.08-43h82.3a3.56,3.56,0,1,0,0-1.33H612.67l-33.08,43H474l-5.54-7.68H580.21l33.08-43h82.29a3.45,3.45,0,0,0,3.35,2.79,3.54,3.54,0,1,0-3.38-4.12H612.67l-33.08,43H467.5L462,283.1H580.21l33.08-43h82.28a3.45,3.45,0,0,0,3.36,2.82,3.53,3.53,0,1,0-3.37-4.15H612.67l-33.08,43H461l-5.55-7.68ZM639.78,291a2.21,2.21,0,1,1-2.14,2.2A2.18,2.18,0,0,1,639.78,291Zm25-9a2.2,2.2,0,1,1-2.14,2.2A2.18,2.18,0,0,1,664.73,282.05Zm34.2-9a2.2,2.2,0,1,1-2.14,2.2A2.18,2.18,0,0,1,698.93,273.08Zm0-9a2.2,2.2,0,1,1-2.14,2.2A2.17,2.17,0,0,1,698.93,264.11Zm0-9a2.21,2.21,0,1,1-2.14,2.21A2.18,2.18,0,0,1,698.93,255.13Zm0-9a2.21,2.21,0,1,1-2.14,2.2A2.18,2.18,0,0,1,698.93,246.16Zm0-9a2.2,2.2,0,1,1-2.14,2.2A2.18,2.18,0,0,1,698.93,237.19Z"/><path class="cls-19" d="M12.48,380.39H-1.89a3.47,3.47,0,0,0-3.37-2.87,3.49,3.49,0,0,0-3.43,3.53,3.48,3.48,0,0,0,3.43,3.53,3.47,3.47,0,0,0,3.37-2.86H148.43l70.78-72.35H248V308H218.67l-70.78,72.35H79.11l82.77-82.84H248v-1.33H161.35L77.68,380l-41-78.83h69.19l19.83-15.4H248V284.4H59.9L43.44,262.09H248v-1.33H42.45l-57.61-78.1H13.58l58.91,71.65H178.82l5.89-4H248v-1.33H186.64l15.28-10.5H248v-1.33H203.86l15.28-10.49H248v-1.33H218.74l-17.21,11.82H100a3.45,3.45,0,0,0-3.36-2.86,3.53,3.53,0,1,0,3.36,4.19h9.11l13.44,11.83h59.85L178.43,253H73.09L15.27,182.66H194.49l24,20.17.18.15H248v-1.33H219.17l-24-20.17-.18-.15H-56.47v1.33h39.69l76,103.07h64.3L105.44,299.8H-56.47v1.33h27.74Zm-17.74,2.86a2.17,2.17,0,0,1-2.14-2.2,2.18,2.18,0,0,1,2.14-2.2,2.18,2.18,0,0,1,2.14,2.2A2.17,2.17,0,0,1-5.26,383.25ZM96.62,240a2.2,2.2,0,1,1,2.14-2.2A2.18,2.18,0,0,1,96.62,240Zm26.39,9-11.93-10.5H199.6l-15.28,10.5ZM-27.27,301.13h11.33l41.21,79.26H13.94Zm78.13,79.26H39.53L-1.69,301.13H9.64ZM11.11,301.13H22.43l41.22,79.26H52.32Zm27,79.26H26.74l-41.22-79.26H-3.15Zm38.38,0H65.11L23.9,301.13H35.23Z"/></g><path class="cls-20" d="M132.76,268.47a3.54,3.54,0,1,0,3.37,4.2H248v-1.33H136.13A3.47,3.47,0,0,0,132.76,268.47Zm0,5.74a2.21,2.21,0,1,1,2.14-2.2A2.18,2.18,0,0,1,132.76,274.21Z"/><path class="cls-21" d="M577.87,219.43h61.41a3.54,3.54,0,1,0,0-1.33h-62.1l-19,29.6H413.47V249H558.89Zm64.78-2.87a2.21,2.21,0,1,1-2.14,2.21A2.18,2.18,0,0,1,642.65,216.56Z"/><path class="cls-22" d="M413.47,260.85H542.79a3.54,3.54,0,1,0,0-1.33H413.47ZM546.16,258a2.21,2.21,0,1,1-2.14,2.2A2.17,2.17,0,0,1,546.16,258Z"/><path class="cls-23" d="M413.47,308.13h36.62L486.73,363l.19.28H692.78a3.53,3.53,0,1,0,0-1.32H487.6l-35.94-53.8H460l32.78,48h85.49a3.54,3.54,0,1,0,0-1.33H493.44l-32.78-48h-9.89l-7.7-11.54-.2-.29h-29.4v1.33h28.72l7,10.5H413.47Zm282.67,52.26a2.2,2.2,0,1,1-2.14,2.2A2.18,2.18,0,0,1,696.14,360.39Zm-114.51-7.13a2.21,2.21,0,1,1-2.14,2.2A2.18,2.18,0,0,1,581.63,353.26Z"/><path class="cls-24" d="M510,216.43a3.53,3.53,0,0,0,0-7.06,3.45,3.45,0,0,0-3.36,2.86H413.47v1.33H506.6A3.46,3.46,0,0,0,510,216.43Zm0-5.74a2.21,2.21,0,1,1-2.13,2.21A2.18,2.18,0,0,1,510,210.69Z"/><path class="cls-25" d="M113.72,209.37a3.53,3.53,0,1,0,3.36,4.19H248v-1.33H117.08A3.45,3.45,0,0,0,113.72,209.37Zm0,5.73a2.21,2.21,0,1,1,2.14-2.2A2.18,2.18,0,0,1,113.72,215.1Z"/><path class="cls-26" d="M108.24,153.23,75.35,110.47l-.19-.25H-7.71a3.46,3.46,0,0,0-3.39-3.12,3.49,3.49,0,0,0-3.43,3.54,3.49,3.49,0,0,0,3.43,3.53,3.46,3.46,0,0,0,3.3-2.62H74.53l32.89,42.75.2.26h85.74l-5.54,7.68H108.24L75.35,119.49l-.19-.25H51.44a3.52,3.52,0,1,0-.11,1.33h23.2l32.89,42.75.2.25h80.85L234,100.47h38.7V175H274V99.14H163.85l37-38.8h83.33V175h1.29V60l66-47V-5.6h-1.29V12h-205l-31-33.38-.93.92,31.22,33.59.19.2H348.78L284.61,59H200.29L162,99.14h-53.8L75.35,56.39l-.19-.25H29.08L.57,18.12a3.57,3.57,0,0,0,1.07-2.55A3.49,3.49,0,0,0-1.79,12a3.48,3.48,0,0,0-3.43,3.53,3.49,3.49,0,0,0,3.43,3.54,3.44,3.44,0,0,0,1.28-.26l29,38.62H74.53l32.89,42.75.2.25H232.37l-5.54,7.69H108.24L75.35,65.41l-.19-.26H-7.73a3.46,3.46,0,0,0-3.37-2.91,3.49,3.49,0,0,0-3.43,3.54,3.49,3.49,0,0,0,3.43,3.53,3.46,3.46,0,0,0,3.36-2.83H74.53l32.89,42.75.2.26H225.87l-5.54,7.68H108.24L75.35,74.42l-.19-.25H-7.73a3.45,3.45,0,0,0-3.37-3,3.48,3.48,0,0,0-3.43,3.53,3.49,3.49,0,0,0,3.43,3.53A3.47,3.47,0,0,0-7.75,75.5H74.53l32.89,42.75.2.25H219.37l-5.54,7.68H108.24L75.35,83.43l-.19-.25H-7.72a3.47,3.47,0,0,0-3.38-3,3.48,3.48,0,0,0-3.43,3.53,3.48,3.48,0,0,0,3.43,3.53,3.45,3.45,0,0,0,3.34-2.74H74.53l32.89,42.75.2.25H212.87l-5.55,7.69H108.24L75.35,92.45l-.19-.25H-7.72a3.45,3.45,0,0,0-3.38-3,3.48,3.48,0,0,0-3.43,3.53,3.48,3.48,0,0,0,3.43,3.53,3.44,3.44,0,0,0,3.32-2.7H74.53l32.89,42.76.2.25h98.74l-5.8,8v-.36H108.24L75.35,101.46l-.19-.25H-7.71a3.47,3.47,0,0,0-3.39-3.08,3.49,3.49,0,0,0-3.43,3.53,3.49,3.49,0,0,0,3.43,3.54,3.45,3.45,0,0,0,3.31-2.66H74.53l32.89,42.75.2.25h92.24l-5.54,7.69ZM-11.1,112.84a2.18,2.18,0,0,1-2.14-2.2,2.18,2.18,0,0,1,2.14-2.21A2.18,2.18,0,0,1-9,110.64,2.18,2.18,0,0,1-11.1,112.84Zm59.14,9a2.2,2.2,0,1,1,2.14-2.2A2.17,2.17,0,0,1,48,121.81Zm-52-106.24a2.18,2.18,0,0,1,2.14-2.2,2.18,2.18,0,0,1,2.14,2.2,2.18,2.18,0,0,1-2.14,2.21A2.18,2.18,0,0,1-3.93,15.57ZM-11.1,68a2.18,2.18,0,0,1-2.14-2.2,2.18,2.18,0,0,1,2.14-2.21A2.18,2.18,0,0,1-9,65.78,2.18,2.18,0,0,1-11.1,68Zm0,9a2.18,2.18,0,0,1-2.14-2.2,2.17,2.17,0,0,1,2.14-2.2A2.17,2.17,0,0,1-9,74.75,2.18,2.18,0,0,1-11.1,77Zm0,9a2.18,2.18,0,0,1-2.14-2.2,2.18,2.18,0,0,1,2.14-2.2A2.18,2.18,0,0,1-9,83.72,2.18,2.18,0,0,1-11.1,85.92Zm0,9a2.17,2.17,0,0,1-2.14-2.2,2.18,2.18,0,0,1,2.14-2.2A2.18,2.18,0,0,1-9,92.69,2.17,2.17,0,0,1-11.1,94.89Zm0,9a2.18,2.18,0,0,1-2.14-2.21,2.18,2.18,0,0,1,2.14-2.2A2.18,2.18,0,0,1-9,101.66,2.18,2.18,0,0,1-11.1,103.87Z"/><path class="cls-27" d="M661.18,410.6H589.07l-62-36H474V362.37l-31.14-43.74H413.47V320h28.74l30.5,42.85v11.82H388.79V345.37H387.5v29.26H377.31V345.37H376V376H387.5v15.79H365.83V345.37h-1.29v46.38h-10.2V345.37h-1.29v46.38H342.86V345.37h-1.29v46.38H331.38V345.37h-1.29v46.38H319.9V345.37h-1.29v46.38H296.94V380.48h11.48V345.37h-1.29v33.78H296.94V345.37h-1.29v46.38H285.46V345.37h-1.29v47.71h11.48v7.36h45.92v7.29H165.4L192.65,376H274V345.37h-1.29v29.26H192.07l-28.39,33.1H39a3.54,3.54,0,1,0,0,1.33H345l-5.6,7.27H214.69L171.92,468h-91a3.46,3.46,0,0,0-3.36-2.87,3.54,3.54,0,0,0,0,7.07,3.46,3.46,0,0,0,3.36-2.87h91.63l42.78-51.63H338.37l-6.24,8.11H220.53L177.76,477.4H80.88a3.53,3.53,0,1,0,0,1.33h97.47l42.78-51.63h110l-6.24,8.11h-98.5L183.6,486.83H80.88A3.45,3.45,0,0,0,77.52,484a3.53,3.53,0,1,0,3.36,4.19H184.19L227,436.54h96.88l-6.23,8.1H232.21l-42.77,51.63H51.56l-61.89-104H148.43L219.21,320H248v-1.33H218.67L147.89,391H-56.47v1.33h29.05l61.88,104H-18.16a3.46,3.46,0,0,0-3.36-2.87,3.49,3.49,0,0,0-3.43,3.53,3.49,3.49,0,0,0,3.43,3.54,3.46,3.46,0,0,0,3.36-2.87H190l.19-.23h0L232.81,446h46.27v27.09l62.49,17.81v35h1.29v-36l-62.49-17.81V446h37.87L340,417.66h.31v-.41l6.3-8.19h6.42V497.6h60.12l20.19,20v8.27h1.29V399.11H388.79v-6h53.1v132.8h1.29V456.8h83.61l61.94,36h71.16v33.29h1.29V412.66l67.32,56.48.82-1L661.18,411Zm-625.57,0a2.21,2.21,0,1,1,2.14-2.2A2.18,2.18,0,0,1,35.61,410.6Zm41.91,60.23a2.21,2.21,0,1,1,2.14-2.2A2.18,2.18,0,0,1,77.52,470.83Zm0,9.43a2.2,2.2,0,1,1,2.14-2.2A2.17,2.17,0,0,1,77.52,480.26Zm0,9.44a2.2,2.2,0,1,1,2.14-2.2A2.18,2.18,0,0,1,77.52,489.7Zm-99,9.44a2.18,2.18,0,0,1-2.14-2.21,2.18,2.18,0,0,1,2.14-2.2,2.18,2.18,0,0,1,2.14,2.2A2.18,2.18,0,0,1-21.52,499.14ZM-25.91,392.3h14.07L50,496.27H36Zm614.64,19.63h71.16v13.79H589.07l-62.76-36.45v.48h-33l-18-13.79h51.48ZM527.6,424.41l61.13,35.5h71.16V475H589.07L527.6,439.32Zm61.47,34.17L527.6,422.89V408l61.13,35.5h71.16v15.1Zm0-16.43L527.6,406.46V391.55L588.73,427h71.16v15.11ZM364.54,393.08v6h-10.2v-6ZM433.36,461H365.83v-52h7.34v43.85h60.19Zm-67.53-53.29v-7.29H387.5v7.29Zm-1.29,0h-10.2v-7.29h10.2Zm-11.49-14.65v6H342.86v-6Zm-56.11,6v-6h44.63v6Zm49.38,8.62h-3.46v-7.29h10.19v7.29Zm67.37,88.54H354.34V409.06h10.2v53.29h68.82v53.42Zm19.67-95.83v51.14h-58.9V409.06h14.33v-8.62Zm-45.86-1.33H365.83v-6H387.5Zm1.29-7.36V376h84.35l19.75,15.12h33.42v64.4H443.18V391.75Zm200.28,99.69L527.6,455.75V440.84l61.13,35.5h71.16v15.1Z"/><polygon class="cls-28" points="295.65 65.27 295.65 145.07 295.65 175 296.94 175 296.94 145.07 296.94 65.97 362.7 19.2 362.98 19 362.98 -5.6 361.69 -5.6 361.69 18.31 295.93 65.07 295.65 65.27"/><polygon class="cls-29" points="307.13 145.07 307.13 175 308.42 175 308.42 145.07 308.42 71.92 374.46 24.95 374.46 -5.6 373.17 -5.6 373.17 24.25 307.13 71.22 307.13 145.07"/><path class="cls-30" d="M318.61,77.17V175h1.29V77.86l65.6-46.65h68.36l37.9,48.86H425.41L419,71.72l-.19-.25H376v54.71H365.83V90.44a3.44,3.44,0,1,0-1.29,0v35.79h-10.2V90.43a3.42,3.42,0,1,0-1.29,0v35.77H342.86V90.42a3.43,3.43,0,1,0-1.29,0v35.76H330.09V175h1.29V127.51h10.19V175h1.29V127.51h10.19V175h1.29V127.51h10.2V175h1.29V127.51H376V175h1.29V127.51h64.58v16.9H387.5V175h1.29V145.74h54.39V127.51h68.95L540,161.1h0l.19.24h99.13a3.54,3.54,0,1,0,0-1.33H540.75l-27.48-33.16v-.67h-.55L498,108.38H447.19L441,100.27h62.27L546,151.9h93.29a3.54,3.54,0,1,0,0-1.33H546.59L503.81,98.94H439.93l-6.23-8.1h75.36l42.77,51.62h87.45a3.53,3.53,0,1,0,0-1.33H552.43L509.65,89.51h-77l-6.23-8.11H514.9L557.67,133h57.92L729.36,18.92l-.9-1L615.07,131.7h-56.8L515.49,80.07H493.41l-37.9-48.86H594l68.36-51.56-.76-1.07-68,51.31H385.94V-5.6h-1.29V30.2L318.89,77ZM363.17,87a2.14,2.14,0,1,1,2.14,2.2A2.17,2.17,0,0,1,363.17,87Zm-11.55,0a2.14,2.14,0,1,1,2.14,2.2A2.17,2.17,0,0,1,351.62,87Zm-11.54,0a2.14,2.14,0,1,1,2.14,2.2A2.17,2.17,0,0,1,340.08,87Zm302.57,71.51a2.2,2.2,0,1,1-2.14,2.2A2.18,2.18,0,0,1,642.65,158.47Zm0-9.44a2.21,2.21,0,1,1-2.14,2.2A2.18,2.18,0,0,1,642.65,149Zm0-9.43a2.2,2.2,0,1,1-2.14,2.2A2.17,2.17,0,0,1,642.65,139.6ZM446.37,109.46l.2.25h50.81L511,126.18H377.31V72.8h40.86l6.3,8.19v.41h.32Z"/><path class="cls-31" d="M580.21,272.85l33.08-43h46.09l21.08-28.11h37.48v-1.33H543.72l-24.78-38.17h-51L442.2,200.41H413.47v1.33h29.4l25.75-38.17h49.63l24.33,37.49-16.27,23H413.47v1.33H527l16.73-23.64H678.82l-5.66,7.56H554.34l-18.49,26.58H413.47v1.33h123L555,210.63H672.16l-13.42,17.89H612.67l-33.08,43H454.18l-11.65-.18H413.47v1.33h28.42v10.49H413.47v1.33h29.71V272.68l10.66.16L499.36,336h80.85l33.08-43H636.5a3.45,3.45,0,0,0,3.28,2.58,3.54,3.54,0,1,0-3.39-3.91H612.67l-33.08,43H500l-5.54-7.69h85.74l33.08-43h48.14a3.55,3.55,0,1,0-.09-1.33H612.67l-33.08,43H493.51L488,317.92h92.24l33.08-43h82.33a3.44,3.44,0,0,0,3.31,2.65,3.53,3.53,0,1,0-3.39-4H612.67l-33.08,43H487.26V317l-5.8-8h98.75l33.08-43H695.6a3.54,3.54,0,1,0-.06-1.33H612.67l-33.08,43H480.5L475,299.89H580.21l33.08-43h82.3a3.55,3.55,0,1,0,0-1.33H612.67l-33.08,43H474l-5.54-7.68H580.21l33.08-43h82.29a3.45,3.45,0,0,0,3.35,2.79,3.54,3.54,0,1,0-3.38-4.11H612.67l-33.08,43H467.5L462,281.86H580.21l33.08-43h82.28a3.45,3.45,0,0,0,3.36,2.82,3.53,3.53,0,1,0-3.37-4.15H612.67l-33.08,43H461l-5.55-7.68Zm59.57,16.93a2.21,2.21,0,1,1-2.14,2.21A2.18,2.18,0,0,1,639.78,289.78Zm25-9a2.21,2.21,0,1,1-2.14,2.2A2.18,2.18,0,0,1,664.73,280.81Zm34.2-9a2.2,2.2,0,1,1-2.14,2.2A2.18,2.18,0,0,1,698.93,271.84Zm0-9a2.2,2.2,0,1,1-2.14,2.2A2.18,2.18,0,0,1,698.93,262.87Zm0-9a2.2,2.2,0,1,1-2.14,2.2A2.17,2.17,0,0,1,698.93,253.9Zm0-9a2.21,2.21,0,1,1-2.14,2.21A2.18,2.18,0,0,1,698.93,244.92Zm0-9a2.21,2.21,0,1,1-2.14,2.2A2.18,2.18,0,0,1,698.93,236Z"/><path class="cls-32" d="M12.48,379.15H-1.89a3.47,3.47,0,0,0-3.37-2.87,3.49,3.49,0,0,0-3.43,3.53,3.49,3.49,0,0,0,3.43,3.54,3.47,3.47,0,0,0,3.37-2.87H148.43l70.78-72.35H248v-1.32H218.67l-70.78,72.34H79.11l82.77-82.84H248V295H161.35L77.68,378.72l-41-78.83h69.19l19.83-15.4H248v-1.33H59.9L43.44,260.85H248v-1.33H42.45l-57.61-78.1H13.58l58.91,71.65H178.82l5.89-4H248V247.7H186.64l15.28-10.49H248v-1.33H203.86l15.28-10.5H248v-1.33H218.74l-17.21,11.83H100a3.53,3.53,0,1,0,0,1.33h9.11L122.53,249h59.85l-3.95,2.71H73.09L15.27,181.42H194.49l24,20.17.18.15H248v-1.33H219.17l-24-20.17-.18-.15H-56.47v1.33h39.69l76,103.07h64.3l-18.12,14.07H-56.47v1.33h27.74ZM-5.26,382a2.18,2.18,0,0,1-2.14-2.21,2.18,2.18,0,0,1,2.14-2.2,2.18,2.18,0,0,1,2.14,2.2A2.18,2.18,0,0,1-5.26,382ZM96.62,238.74a2.2,2.2,0,1,1,2.14-2.2A2.18,2.18,0,0,1,96.62,238.74Zm26.39,9-11.93-10.49H199.6L184.32,247.7ZM-27.27,299.89h11.33l41.21,79.26H13.94Zm78.13,79.26H39.53L-1.69,299.89H9.64ZM11.11,299.89H22.43l41.22,79.26H52.32Zm27,79.26H26.74l-41.22-79.26H-3.15Zm38.38,0H65.11L23.9,299.89H35.23Z"/><ellipse class="cls-33" cx="253.6" cy="260.85" rx="26.13" ry="99.96"/><ellipse class="cls-34" cx="407.88" cy="260.85" rx="26.13" ry="99.96"/><ellipse class="cls-35" cx="330.74" cy="340.27" rx="97.08" ry="26.9"/><ellipse class="cls-36" cx="330.74" cy="181.42" rx="97.08" ry="26.9"/><rect class="cls-37" x="264.26" y="192.41" width="132.94" height="136.88" rx="11.66"/><rect class="cls-38" x="270.48" y="175.7" width="5.7" height="16.7"/><rect class="cls-39" x="281.96" y="175.7" width="5.7" height="16.7"/><rect class="cls-40" x="293.44" y="175.7" width="5.7" height="16.7"/><rect class="cls-41" x="304.93" y="175.7" width="5.7" height="16.7"/><rect class="cls-42" x="316.41" y="175.7" width="5.7" height="16.7"/><rect class="cls-43" x="327.89" y="175.7" width="5.7" height="16.7"/><rect class="cls-44" x="339.37" y="175.7" width="5.7" height="16.7"/><rect class="cls-45" x="350.85" y="175.7" width="5.7" height="16.7"/><rect class="cls-46" x="362.33" y="175.7" width="5.7" height="16.7"/><rect class="cls-47" x="373.81" y="175.7" width="5.7" height="16.7"/><rect class="cls-48" x="385.3" y="175.7" width="5.7" height="16.7"/><rect class="cls-49" x="270.48" y="329.29" width="5.7" height="16.7"/><rect class="cls-50" x="281.96" y="329.29" width="5.7" height="16.7"/><rect class="cls-51" x="293.44" y="329.29" width="5.7" height="16.7"/><rect class="cls-52" x="304.93" y="329.29" width="5.7" height="16.7"/><rect class="cls-53" x="316.41" y="329.29" width="5.7" height="16.7"/><rect class="cls-54" x="327.89" y="329.29" width="5.7" height="16.7"/><rect class="cls-55" x="339.37" y="329.29" width="5.7" height="16.7"/><rect class="cls-56" x="350.85" y="329.29" width="5.7" height="16.7"/><rect class="cls-57" x="362.33" y="329.29" width="5.7" height="16.7"/><rect class="cls-58" x="373.81" y="329.29" width="5.7" height="16.7"/><rect class="cls-59" x="385.3" y="329.29" width="5.7" height="16.7"/><rect class="cls-60" x="253.22" y="311.85" width="5.87" height="16.22" transform="translate(-63.8 576.11) rotate(-90)"/><rect class="cls-61" x="253.22" y="300.02" width="5.87" height="16.22" transform="translate(-51.98 564.29) rotate(-90)"/><rect class="cls-62" x="253.22" y="288.2" width="5.87" height="16.22" transform="translate(-40.16 552.47) rotate(-90)"/><rect class="cls-63" x="253.22" y="276.38" width="5.87" height="16.22" transform="translate(-28.34 540.65) rotate(-90)"/><rect class="cls-64" x="253.22" y="264.56" width="5.87" height="16.22" transform="translate(-16.52 528.82) rotate(-90)"/><rect class="cls-65" x="253.22" y="252.74" width="5.87" height="16.22" transform="translate(-4.69 517) rotate(-90)"/><rect class="cls-66" x="253.22" y="240.92" width="5.87" height="16.22" transform="translate(7.13 505.18) rotate(-90)"/><rect class="cls-67" x="253.22" y="229.09" width="5.87" height="16.22" transform="translate(18.95 493.36) rotate(-90)"/><rect class="cls-68" x="253.22" y="217.27" width="5.87" height="16.22" transform="translate(30.77 481.54) rotate(-90)"/><rect class="cls-69" x="253.22" y="205.45" width="5.87" height="16.22" transform="translate(42.59 469.71) rotate(-90)"/><rect class="cls-70" x="253.22" y="193.63" width="5.87" height="16.22" transform="translate(54.41 457.89) rotate(-90)"/><rect class="cls-71" x="402.39" y="311.85" width="5.87" height="16.22" transform="translate(85.36 725.28) rotate(-90)"/><rect class="cls-72" x="402.39" y="300.02" width="5.87" height="16.22" transform="translate(97.18 713.45) rotate(-90)"/><rect class="cls-73" x="402.39" y="288.2" width="5.87" height="16.22" transform="translate(109.01 701.63) rotate(-90)"/><rect class="cls-74" x="402.39" y="276.38" width="5.87" height="16.22" transform="translate(120.83 689.81) rotate(-90)"/><rect class="cls-75" x="402.39" y="264.56" width="5.87" height="16.22" transform="translate(132.65 677.99) rotate(-90)"/><rect class="cls-76" x="402.39" y="252.74" width="5.87" height="16.22" transform="translate(144.47 666.17) rotate(-90)"/><rect class="cls-77" x="402.39" y="240.92" width="5.87" height="16.22" transform="translate(156.29 654.35) rotate(-90)"/><rect class="cls-78" x="402.39" y="229.09" width="5.87" height="16.22" transform="translate(168.11 642.52) rotate(-90)"/><rect class="cls-79" x="402.39" y="217.27" width="5.87" height="16.22" transform="translate(179.94 630.7) rotate(-90)"/><rect class="cls-80" x="402.39" y="205.45" width="5.87" height="16.22" transform="translate(191.76 618.88) rotate(-90)"/><rect class="cls-81" x="402.39" y="193.63" width="5.87" height="16.22" transform="translate(203.58 607.06) rotate(-90)"/><g class="cls-6"><rect class="cls-82" x="264.26" y="192.41" width="132.94" height="136.88" rx="11.66"/><rect class="cls-83" x="264.47" y="192.61" width="132.54" height="136.47" rx="11.35"/><rect class="cls-84" x="264.67" y="192.82" width="132.14" height="136.05" rx="11.03"/><rect class="cls-85" x="264.87" y="193.03" width="131.73" height="135.64" rx="10.72"/><rect class="cls-86" x="265.07" y="193.24" width="131.33" height="135.22" rx="10.41"/><rect class="cls-87" x="265.27" y="193.44" width="130.93" height="134.81" rx="10.1"/><rect class="cls-88" x="265.47" y="193.65" width="130.53" height="134.39" rx="9.78"/><rect class="cls-89" x="265.68" y="193.86" width="130.12" height="133.98" rx="9.47"/><rect class="cls-90" x="265.88" y="194.07" width="129.72" height="133.56" rx="9.16"/><rect class="cls-91" x="266.08" y="194.27" width="129.32" height="133.15" rx="8.85"/><rect class="cls-92" x="266.28" y="194.48" width="128.91" height="132.73" rx="8.54"/><rect class="cls-93" x="266.48" y="194.69" width="128.51" height="132.32" rx="8.22"/><rect class="cls-94" x="266.68" y="194.9" width="128.11" height="131.9" rx="7.91"/><rect class="cls-95" x="266.88" y="195.1" width="127.7" height="131.49" rx="7.6"/><rect class="cls-96" x="267.09" y="195.31" width="127.3" height="131.07" rx="7.29"/><rect class="cls-97" x="267.29" y="195.52" width="126.9" height="130.66" rx="6.97"/><rect class="cls-98" x="267.49" y="195.73" width="126.49" height="130.24" rx="6.66"/><rect class="cls-99" x="267.69" y="195.93" width="126.09" height="129.83" rx="6.35"/><rect class="cls-100" x="267.89" y="196.14" width="125.69" height="129.41" rx="6.04"/><rect class="cls-101" x="268.09" y="196.35" width="125.29" height="129" rx="5.73"/><rect class="cls-102" x="268.3" y="196.56" width="124.88" height="128.58" rx="5.41"/><rect class="cls-103" x="268.5" y="196.76" width="124.48" height="128.17" rx="5.1"/><rect class="cls-104" x="268.7" y="196.97" width="124.08" height="127.75" rx="4.79"/><rect class="cls-105" x="268.9" y="197.18" width="123.67" height="127.34" rx="4.48"/><rect class="cls-106" x="269.1" y="197.39" width="123.27" height="126.92" rx="4.16"/><rect class="cls-107" x="269.3" y="197.59" width="122.87" height="126.51" rx="3.85"/><rect class="cls-108" x="269.5" y="197.8" width="122.46" height="126.09" rx="3.54"/></g><path class="cls-109" d="M389.68,197.8H271.79a2.33,2.33,0,0,0-2.29,2.35V321.54a2.33,2.33,0,0,0,2.29,2.36H389.68a2.33,2.33,0,0,0,2.29-2.36V200.15A2.33,2.33,0,0,0,389.68,197.8Z"/></g><rect class="cls-1" x="66.65" y="-5.02" width="531.63" height="531.63"/><rect class="cls-110" x="67.89" y="-4.87" width="531.63" height="531.63"/><polygon class="cls-111" points="228.88 75.23 220.47 80.1 207.4 57.47 215.82 52.61 228.88 75.23 228.88 75.23"/><polygon class="cls-111" points="170.71 121.96 164.46 129.41 144.44 112.62 150.69 105.17 170.71 121.96 170.71 121.96"/><polygon class="cls-111" points="132.02 185.77 128.69 194.91 104.14 185.98 107.46 176.84 132.02 185.77 132.02 185.77"/><polygon class="cls-111" points="117.49 258.96 117.49 268.69 91.36 268.69 91.36 258.96 117.49 258.96 117.49 258.96"/><polygon class="cls-111" points="128.87 332.71 132.19 341.86 107.64 350.8 104.31 341.66 128.87 332.71 128.87 332.71"/><polygon class="cls-111" points="164.78 398.13 171.04 405.57 151.02 422.37 144.77 414.92 164.78 398.13 164.78 398.13"/><polygon class="cls-111" points="493.9 405.18 500.15 397.73 520.17 414.53 513.92 421.98 493.9 405.18 493.9 405.18"/><polygon class="cls-111" points="532.59 341.37 535.91 332.23 560.47 341.17 557.14 350.3 532.59 341.37 532.59 341.37"/><polygon class="cls-111" points="547.12 268.18 547.12 258.45 573.25 258.45 573.25 268.17 547.12 268.18 547.12 268.18"/><polygon class="cls-111" points="535.74 194.44 532.41 185.29 556.97 176.35 560.29 185.49 535.74 194.44 535.74 194.44"/><polygon class="cls-111" points="499.82 129.02 493.57 121.57 513.59 104.77 519.84 112.22 499.82 129.02 499.82 129.02"/><polygon class="cls-111" points="443.7 79.84 435.27 74.98 448.34 52.35 456.76 57.22 443.7 79.84 443.7 79.84"/><polygon class="cls-112" points="259.35 56.35 254.78 58.02 247.5 38.04 252.07 36.37 259.35 56.35 259.35 56.35"/><polygon class="cls-112" points="192.99 93.69 189.26 96.82 175.59 80.53 179.32 77.4 192.99 93.69 192.99 93.69"/><polygon class="cls-112" points="143.4 151.48 140.97 155.69 122.55 145.05 124.97 140.84 143.4 151.48 143.4 151.48"/><polygon class="cls-112" points="116.56 222.73 115.72 227.53 94.77 223.83 95.61 219.05 116.56 222.73 116.56 222.73"/><polygon class="cls-112" points="115.72 298.88 116.56 303.67 95.61 307.36 94.77 302.57 115.72 298.88 115.72 298.88"/><polygon class="cls-112" points="140.97 370.72 143.4 374.93 124.97 385.56 122.55 381.35 140.97 370.72 140.97 370.72"/><polygon class="cls-112" points="520.7 374.93 523.13 370.72 541.54 381.35 539.11 385.56 520.7 374.93 520.7 374.93"/><polygon class="cls-112" points="547.53 303.67 548.38 298.88 569.32 302.57 568.48 307.36 547.53 303.67 547.53 303.67"/><polygon class="cls-112" points="548.38 227.53 547.53 222.73 568.48 219.05 569.32 223.83 548.38 227.53 548.38 227.53"/><polygon class="cls-112" points="523.13 155.69 520.7 151.48 539.11 140.85 541.54 145.05 523.13 155.69 523.13 155.69"/><polygon class="cls-112" points="474.83 96.82 471.11 93.69 484.77 77.41 488.5 80.53 474.83 96.82 474.83 96.82"/><polygon class="cls-112" points="259.24 56.47 254.66 58.13 247.39 38.14 251.96 36.48 259.24 56.47 259.24 56.47"/><polygon class="cls-112" points="192.81 93.94 189.08 97.07 175.41 80.78 179.13 77.65 192.81 93.94 192.81 93.94"/><polygon class="cls-112" points="143.21 151.89 140.77 156.1 122.35 145.46 124.78 141.25 143.21 151.89 143.21 151.89"/><polygon class="cls-112" points="116.41 223.3 115.56 228.09 94.62 224.39 95.46 219.6 116.41 223.3 116.41 223.3"/><polygon class="cls-112" points="115.65 299.57 116.5 304.35 95.55 308.05 94.71 303.25 115.65 299.57 115.65 299.57"/><polygon class="cls-112" points="141.03 371.49 143.46 375.71 125.04 386.34 122.61 382.12 141.03 371.49 141.03 371.49"/><polygon class="cls-111" points="299.54 51.23 289.96 52.92 285.42 27.18 295 25.49 299.54 51.23 299.54 51.23"/><polygon class="cls-112" points="521.4 375.26 523.83 371.06 542.25 381.68 539.82 385.89 521.4 375.26 521.4 375.26"/><polygon class="cls-111" points="548.2 303.85 549.04 299.06 569.99 302.75 569.14 307.54 548.2 303.85 548.2 303.85"/><polygon class="cls-111" points="548.95 227.58 548.11 222.79 569.05 219.1 569.9 223.88 548.95 227.58 548.95 227.58"/><polygon class="cls-111" points="523.58 155.65 521.15 151.44 539.56 140.8 541.99 145.02 523.58 155.65 523.58 155.65"/><polygon class="cls-111" points="475.13 96.74 471.4 93.62 485.07 77.32 488.8 80.45 475.13 96.74 475.13 96.74"/><polygon class="cls-111" points="409.46 57.95 404.89 56.29 412.16 36.3 416.73 37.97 409.46 57.95 409.46 57.95"/><polygon class="cls-111" points="259.35 56.35 254.78 58.02 247.5 38.04 252.07 36.37 259.35 56.35 259.35 56.35"/><polygon class="cls-111" points="192.99 93.69 189.26 96.82 175.59 80.53 179.32 77.41 192.99 93.69 192.99 93.69"/><polygon class="cls-111" points="143.4 151.48 140.97 155.69 122.55 145.05 124.97 140.85 143.4 151.48 143.4 151.48"/><polygon class="cls-111" points="116.56 222.73 115.72 227.53 94.77 223.83 95.62 219.05 116.56 222.73 116.56 222.73"/><polygon class="cls-111" points="115.72 298.88 116.56 303.67 95.61 307.36 94.77 302.57 115.72 298.88 115.72 298.88"/><polygon class="cls-111" points="140.97 370.72 143.4 374.93 124.97 385.56 122.55 381.35 140.97 370.72 140.97 370.72"/><polygon class="cls-111" points="374.14 52.82 364.56 51.13 369.11 25.4 378.68 27.09 374.14 52.82 374.14 52.82"/><polygon class="cls-112" points="334.48 43.97 329.61 43.97 329.61 22.7 334.48 22.7 334.48 43.97 334.48 43.97"/><polygon class="cls-111" points="520.7 374.93 523.13 370.72 541.54 381.35 539.11 385.56 520.7 374.93 520.7 374.93"/><path class="cls-111" d="M342.12,262.94A10.16,10.16,0,1,1,332,252.78a10.16,10.16,0,0,1,10.16,10.16Z"/><polygon class="cls-111" points="334.48 43.97 329.61 43.97 329.61 22.7 334.47 22.7 334.48 43.97 334.48 43.97"/><path class="cls-111" d="M341.25,259.56a9.8,9.8,0,1,1-12.41-6.18,9.8,9.8,0,0,1,12.41,6.18Z"/><path class="cls-111" d="M350.52,256.44a19.58,19.58,0,1,1-24.78-12.34,19.57,19.57,0,0,1,24.78,12.34Z"/><path class="cls-113" d="M184.19,398.76v-1.55l2-1.92c4.75-4.52,6.9-6.92,6.93-9.73,0-1.88-.92-3.63-3.69-3.63a6.34,6.34,0,0,0-4,1.57l-.81-1.77a8.18,8.18,0,0,1,5.27-1.89c4,0,5.7,2.75,5.7,5.42,0,3.42-2.5,6.2-6.41,10l-1.49,1.38v.06h8.35v2.09Z"/><text class="cls-114" transform="translate(199.26 398.82)">K</text><path class="cls-113" d="M162.27,333.73v-6.2c0-1,0-1.95.08-2.92h-.08c-.58,1.08-1,1.88-1.55,2.74l-4.55,6.33v.05Zm0,7v-5.06h-8.65v-1.66l8.3-11.88h2.72v11.56h2.6v2h-2.6v5.06Z"/><text class="cls-114" transform="translate(170.24 339.61)">K</text><path class="cls-113" d="M148,269.32c2.15,0,3.6-1.81,3.6-4.47s-1.52-4.26-3.83-4.26a4.15,4.15,0,0,0-3.61,2.28,2.18,2.18,0,0,0-.28,1.12c.05,3.06,1.46,5.33,4.09,5.33Zm4.32-15.2a9.28,9.28,0,0,0-1.89.11,7.58,7.58,0,0,0-6.47,6.61H144a5.55,5.55,0,0,1,4.49-2.14c3.29,0,5.61,2.37,5.61,6,0,3.4-2.32,6.55-6.18,6.55s-6.58-3.09-6.58-7.93a11.71,11.71,0,0,1,3.15-8.38,10.09,10.09,0,0,1,6-2.74,11.56,11.56,0,0,1,1.83-.15v2.06Z"/><text class="cls-114" transform="translate(158.63 269.95)">K</text><path class="cls-113" d="M159.57,196.31c0,1.87,1.4,2.86,3.54,3.44a3.66,3.66,0,0,0,2.84-3.38,2.89,2.89,0,0,0-3.15-3,3,3,0,0,0-3.23,3Zm6.92,9.3c0-2.26-1.57-3.35-4.09-4.06-2.18.63-3.35,2.06-3.35,3.83a3.45,3.45,0,0,0,3.72,3.55c2.26,0,3.72-1.43,3.72-3.32Zm-6.36-5a4.62,4.62,0,0,1-2.94-4.17c0-3,2.49-5,5.75-5,3.61,0,5.41,2.27,5.41,4.58a4.72,4.72,0,0,1-3.06,4.35v.09c2.32.91,3.75,2.54,3.75,4.8,0,3.24-2.78,5.41-6.32,5.41-3.89,0-6.25-2.31-6.25-5,0-2.34,1.4-4,3.7-5l0-.09Z"/><text class="cls-114" transform="translate(172.56 209.58)">K</text><path class="cls-113" d="M193.45,141c0,4.84,1.49,7.59,3.77,7.59,2.58,0,3.82-3,3.82-7.76,0-4.57-1.18-7.58-3.79-7.58-2.2,0-3.8,2.69-3.8,7.75Zm10.09-.28c0,6.32-2.34,9.81-6.45,9.81-3.64,0-6.1-3.4-6.16-9.56s2.7-9.67,6.47-9.67,6.14,3.5,6.14,9.42Z"/><polygon class="cls-113" points="183.88 134.11 183.83 134.11 180.59 135.85 180.11 133.94 184.17 131.76 186.31 131.76 186.31 150.36 183.88 150.36 183.88 134.11 183.88 134.11"/><text class="cls-114" transform="translate(205.07 150.36)">K</text><polygon class="cls-113" points="234.97 94.64 234.91 94.64 231.68 96.38 231.19 94.46 235.26 92.29 237.4 92.29 237.4 110.88 234.97 110.88 234.97 94.64 234.97 94.64"/><path class="cls-113" d="M242.25,110.94v-1.55l2-1.91c4.76-4.52,6.9-6.93,6.92-9.73,0-1.89-.91-3.63-3.69-3.63a6.28,6.28,0,0,0-3.94,1.57l-.8-1.78A8.2,8.2,0,0,1,248,92c4,0,5.7,2.74,5.7,5.4,0,3.43-2.5,6.21-6.42,10l-1.48,1.37v.06h8.35v2.09Z"/><text class="cls-114" transform="translate(256.15 110.89)">K</text><path class="cls-113" d="M302.75,86.43v-6.2c0-1,0-2,.09-2.92h-.09c-.57,1.08-1,1.88-1.55,2.74l-4.54,6.33v.05Zm0,7V88.41h-8.64V86.75l8.3-11.88h2.72V86.43h2.6v2h-2.6v5.06Z"/><polygon class="cls-113" points="288.37 77.22 288.32 77.22 285.08 78.96 284.6 77.05 288.67 74.87 290.81 74.87 290.81 93.47 288.37 93.47 288.37 77.22 288.37 77.22"/><text class="cls-114" transform="translate(309.56 93.47)">K</text><path class="cls-113" d="M368.56,92.84c2.15,0,3.61-1.81,3.61-4.47s-1.52-4.26-3.83-4.26a4.15,4.15,0,0,0-3.61,2.29,2.18,2.18,0,0,0-.28,1.12c.05,3,1.45,5.32,4.09,5.32Zm4.32-15.19a8.53,8.53,0,0,0-1.88.11,7.57,7.57,0,0,0-6.47,6.61h.09a5.51,5.51,0,0,1,4.49-2.15c3.29,0,5.6,2.38,5.6,6,0,3.41-2.31,6.56-6.17,6.56S362,91.69,362,86.86a11.67,11.67,0,0,1,3.14-8.38,10.16,10.16,0,0,1,5.95-2.75,11.44,11.44,0,0,1,1.83-.14v2.06Z"/><polygon class="cls-113" points="355.71 78.38 355.66 78.38 352.42 80.12 351.94 78.21 356 76.03 358.15 76.03 358.15 94.63 355.71 94.63 355.71 78.38 355.71 78.38"/><text class="cls-114" transform="translate(376.9 94.63)">K</text><path class="cls-113" d="M427.76,103.43c0,1.87,1.41,2.86,3.55,3.43a3.66,3.66,0,0,0,2.84-3.37,2.89,2.89,0,0,0-3.15-3,3,3,0,0,0-3.24,3Zm6.93,9.3c0-2.26-1.58-3.35-4.09-4.07-2.18.63-3.35,2.07-3.35,3.84a3.44,3.44,0,0,0,3.71,3.55c2.27,0,3.73-1.43,3.73-3.32Zm-6.36-5a4.62,4.62,0,0,1-2.94-4.18c0-2.94,2.49-4.95,5.75-4.95,3.61,0,5.41,2.27,5.41,4.58a4.73,4.73,0,0,1-3.06,4.35v.09c2.31.91,3.74,2.54,3.74,4.8,0,3.24-2.77,5.41-6.32,5.41-3.89,0-6.24-2.32-6.24-5,0-2.35,1.4-4,3.7-5l0-.09Z"/><polygon class="cls-113" points="418.96 101.83 418.91 101.83 415.67 103.57 415.19 101.66 419.25 99.48 421.4 99.48 421.4 118.08 418.96 118.08 418.96 101.83 418.96 101.83"/><text class="cls-114" transform="translate(439.6 116.69)">K</text><path class="cls-115" d="M439,158.65v-2.19l2.78-2.71c6.72-6.39,9.75-9.78,9.78-13.75,0-2.66-1.28-5.13-5.21-5.13a9,9,0,0,0-5.58,2.22l-1.13-2.51a11.57,11.57,0,0,1,7.44-2.66c5.66,0,8.05,3.88,8.05,7.64,0,4.85-3.53,8.78-9.06,14.12l-2.1,1.93v.09h11.8v3Z"/><path class="cls-115" d="M464.53,145.62c0,6.84,2.11,10.72,5.34,10.72,3.64,0,5.38-4.24,5.38-11,0-6.48-1.66-10.72-5.34-10.72-3.11,0-5.38,3.8-5.38,11Zm14.28-.4c0,8.94-3.32,13.87-9.14,13.87-5.14,0-8.61-4.81-8.69-13.5s3.79-13.67,9.13-13.67c5.54,0,8.7,4.93,8.7,13.3Z"/><text class="cls-116" transform="translate(481.57 156.94)">K</text><path class="cls-117" d="M481.42,208.46v-1.54l2-1.92c4.76-4.52,6.9-6.92,6.92-9.73,0-1.88-.9-3.63-3.69-3.63a6.36,6.36,0,0,0-3.94,1.57l-.8-1.77a8.15,8.15,0,0,1,5.26-1.89c4,0,5.7,2.75,5.7,5.41,0,3.43-2.5,6.21-6.42,10l-1.48,1.37v.06h8.35v2.08Z"/><text class="cls-118" transform="translate(511.58 209.58)">K</text><path class="cls-117" d="M496.66,208.93l0-1.55,1.93-1.95c4.66-4.62,6.75-7.07,6.72-9.88,0-1.88-1-3.61-3.77-3.55a6.37,6.37,0,0,0-3.91,1.65l-.83-1.75a8.13,8.13,0,0,1,5.22-2c4-.08,5.75,2.63,5.8,5.29.08,3.43-2.36,6.26-6.2,10.12l-1.46,1.4v.06l8.36-.17,0,2.08-11.87.25Z"/><path class="cls-117" d="M512.9,263.43v-6.21c0-1,0-2,.08-2.92h-.08c-.58,1.09-1,1.89-1.55,2.75l-4.55,6.32v.06Zm0,7V265.4h-8.65v-1.65l8.3-11.88h2.72v11.56h2.6v2h-2.6v5.06Z"/><path class="cls-117" d="M492,270.46l0-1.54,1.93-2c4.66-4.62,6.76-7.06,6.72-9.87,0-1.89-1-3.61-3.76-3.55a6.24,6.24,0,0,0-3.91,1.65l-.84-1.76a8.16,8.16,0,0,1,5.22-2c4-.09,5.76,2.62,5.81,5.29.07,3.43-2.37,6.25-6.21,10.12l-1.45,1.39v.06l8.35-.17,0,2.09-11.86.24Z"/><text class="cls-118" transform="translate(522.19 270.95) rotate(-1.19)">K</text><path class="cls-117" d="M503.24,335.5c2.15,0,3.61-1.81,3.61-4.47s-1.52-4.26-3.84-4.26a4.14,4.14,0,0,0-3.6,2.28,2.18,2.18,0,0,0-.28,1.12c.05,3.06,1.45,5.33,4.09,5.33Zm4.32-15.2a9.19,9.19,0,0,0-1.88.11,7.57,7.57,0,0,0-6.47,6.61h.09a5.53,5.53,0,0,1,4.49-2.14c3.29,0,5.6,2.37,5.6,6,0,3.4-2.31,6.55-6.17,6.55s-6.58-3.1-6.58-7.93a11.71,11.71,0,0,1,3.14-8.38,10.22,10.22,0,0,1,6-2.75,12.75,12.75,0,0,1,1.83-.14v2.06Z"/><path class="cls-117" d="M481.57,337.8l0-1.54,1.92-2c4.67-4.62,6.76-7.06,6.72-9.87,0-1.89-1-3.61-3.76-3.55a6.24,6.24,0,0,0-3.91,1.65l-.84-1.76a8.17,8.17,0,0,1,5.23-2c4-.09,5.75,2.62,5.8,5.28.07,3.43-2.37,6.26-6.2,10.13L485,335.58v.06l8.35-.17.05,2.09-11.87.24Z"/><text class="cls-118" transform="translate(511.74 337.13) rotate(-1.19)">K</text><path class="cls-119" d="M469.56,376.27c0,1.87,1.41,2.86,3.55,3.44a3.66,3.66,0,0,0,2.83-3.38,2.89,2.89,0,0,0-3.14-3,3,3,0,0,0-3.24,3Zm6.93,9.3c0-2.26-1.58-3.35-4.09-4.06-2.18.63-3.35,2.06-3.35,3.83a3.43,3.43,0,0,0,3.71,3.55c2.26,0,3.73-1.43,3.73-3.32Zm-6.36-4.95a4.6,4.6,0,0,1-2.94-4.17c0-2.95,2.48-5,5.75-5,3.6,0,5.41,2.27,5.41,4.58a4.71,4.71,0,0,1-3.07,4.35v.09c2.32.91,3.75,2.54,3.75,4.8,0,3.24-2.77,5.41-6.32,5.41-3.89,0-6.24-2.31-6.24-5,0-2.35,1.4-4,3.69-5l0-.09Z"/><path class="cls-119" d="M451.38,391.21l0-1.54,1.93-2c4.66-4.62,6.75-7.07,6.72-9.87,0-1.89-1-3.61-3.77-3.56a6.32,6.32,0,0,0-3.91,1.66l-.83-1.76a8.18,8.18,0,0,1,5.22-2c4-.08,5.75,2.63,5.8,5.29.08,3.43-2.36,6.26-6.2,10.12l-1.46,1.4v.06l8.36-.17,0,2.08-11.87.25Z"/><text class="cls-120" transform="translate(481.55 391.7) rotate(-1.19)">K</text><polygon class="cls-111" points="329 262.16 496.44 124.24 332.89 266.77 329 262.16 329 262.16"/></g></g></g></svg>