<svg xmlns="http://www.w3.org/2000/svg" viewBox="0 0 41 41">
  <defs>
    <style>
      .cls-1 {
        fill: none;
        stroke: #000;
        stroke-miterlimit: 10;
      }
    </style>
  </defs>
  <title>Asset 20pcb</title>
  <g id="Layer_2" data-name="Layer 2">
    <g id="Layer_1-2" data-name="Layer 1">
      <g>
        <path class="cls-1" d="M20.05,11.15a8.91,8.91,0,0,0,1.83-.29c1.4-.62.65-3.11,2.13-3.57a2.86,2.86,0,0,1,1.31,0,10.45,10.45,0,0,1,4.76,1.78,10.48,10.48,0,0,0,1.5,1.13c.6.31,1.9.62,2.31-.05a4.57,4.57,0,0,0,.2-1.63c.05-1.07-.21-2.17-1.54-2A14,14,0,0,1,30.79,7a4.24,4.24,0,0,1-2.51-1.17A4.13,4.13,0,0,0,24.37,5a15.11,15.11,0,0,1-2.29.76.9.9,0,0,1-.82-.31c-.45-.62.19-1.56.28-2.2.15-1-.1-2.81-1.47-2.78S18.45,2.26,18.6,3.27c.09.64.72,1.59.27,2.2a.9.9,0,0,1-.82.3A15.11,15.11,0,0,1,15.76,5a4.13,4.13,0,0,0-3.91.75A4.24,4.24,0,0,1,9.33,6.93a14,14,0,0,1-1.77-.41C6.23,6.29,6,7.39,6,8.46a4.57,4.57,0,0,0,.2,1.64c.42.67,1.71.37,2.31.06A10.48,10.48,0,0,0,10,9a10.45,10.45,0,0,1,4.77-1.76,2.86,2.86,0,0,1,1.31,0c1.48.47.71,3,2.12,3.58A8.91,8.91,0,0,0,20.05,11.15Z"/>
        <path class="cls-1" d="M38.94,25.28l-5.5-13.13H31.68L26.9,25.48H25.38s0,4.22,3.39,5.87a9.59,9.59,0,0,0,5.12.89,7.25,7.25,0,0,0,6.61-7Zm-9.45.21,3.17-9.66,3.79,9.66Z"/>
        <path class="cls-1" d="M14.06,25.28,8.56,12.14H6.8L2,25.48H.5s0,4.22,3.39,5.87A9.59,9.59,0,0,0,9,32.24a7.25,7.25,0,0,0,6.61-7Zm-9.45.21,3.17-9.66,3.79,9.66Z"/>
        <path class="cls-1" d="M16.68,12.7h7.2s0,1,0,1.14A1.82,1.82,0,0,1,22,15.62L21.7,33.41s2.84.28,2.95,2.33l.11,2.06h4.91v2.7H10.36V37.69h5.27s0-2.81,1.82-3.79l1-.51,0-17.78A2.86,2.86,0,0,1,16.68,12.7Z"/>
      </g>
    </g>
  </g>
</svg>
