<svg xmlns="http://www.w3.org/2000/svg" viewBox="0 0 40 40.57">
  <defs>
    <style>
      .cls-1, .cls-2 {
        stroke: #000;
        stroke-miterlimit: 10;
        stroke-width: 0.76px;
      }

      .cls-2 {
        fill: none;
      }
    </style>
  </defs>
  <title>Asset 3circuit</title>
  <g id="Layer_2" data-name="Layer 2">
    <g id="Layer_1-2" data-name="Layer 1">
      <g>
        <line class="cls-1" x1="20.94" y1="0.3" x2="20.94" y2="10.12"/>
        <path class="cls-2" d="M24.62.3a5.86,5.86,0,0,0-2.06,4.6,7,7,0,0,0,2.06,5.22"/>
        <g>
          <line class="cls-1" x1="21.11" y1="30.49" x2="21.11" y2="40.3"/>
          <path class="cls-2" d="M24.8,30.49a5.86,5.86,0,0,0-2.06,4.6A7,7,0,0,0,24.8,40.3"/>
          <polyline class="cls-2" points="22.74 35.53 28.05 35.53 30.97 35.53 30.97 5.35 27.88 5.35 22.57 5.35"/>
          <polyline class="cls-2" points="20.94 5.35 16.25 5.35 7.77 5.35 7.77 35.53 16.43 35.53 21.11 35.53"/>
        </g>
        <line class="cls-2" x1="30.97" y1="20.44" x2="40" y2="20.44"/>
        <line class="cls-2" x1="7.77" y1="20.44" y2="20.44"/>
      </g>
    </g>
  </g>
</svg>
