<svg xmlns="http://www.w3.org/2000/svg" viewBox="0 0 40.38 40.58">
  <defs>
    <style>
      .cls-1, .cls-2 {
        fill: none;
        stroke: #000;
        stroke-miterlimit: 10;
      }

      .cls-1 {
        stroke-width: 0.39px;
      }

      .cls-2 {
        stroke-width: 0.39px;
      }
    </style>
  </defs>
  <title>Asset 14circuit1</title>
  <g id="Layer_2" data-name="Layer 2">
    <g id="Layer_1-2" data-name="Layer 1">
      <g>
        <polyline class="cls-1" points="20.59 2.33 20.59 13.26 21.96 15.21 19.67 16.65 21.96 18.5 19.67 20.55 21.96 21.98 19.8 23.62 21.96 25.47 20.82 27.93 20.82 40.17"/>
        <polyline class="cls-2" points="0.74 2.33 37.16 2.33 37.16 13.26 38.51 15.21 36.27 16.65 38.51 18.5 36.27 20.55 38.51 21.98 36.39 23.62 38.51 25.47 37.39 27.93 37.39 40.17 0.74 40.38"/>
        <polygon points="3.25 0.43 10.99 0.43 10.99 0.77 11.65 0.38 10.99 0 10.99 0.34 3.25 0.34 3.25 0.43"/>
        <polygon points="39.95 2.33 39.95 12.14 39.62 12.14 40 12.8 40.38 12.14 40.05 12.14 40.05 2.33 39.95 2.33"/>
        <polygon points="22.95 3.8 22.95 13.61 22.61 13.61 22.99 14.27 23.38 13.61 23.04 13.61 23.04 3.8 22.95 3.8"/>
        <path d="M0,10.19H.9V9.06h.76v1.13h.91v.95H1.66v1.13H.9V11.14H0Z"/>
        <path d="M.6,32.73H2v.93H.6Z"/>
      </g>
    </g>
  </g>
</svg>
