<svg xmlns="http://www.w3.org/2000/svg" viewBox="0 0 39.63 26.42">
  <defs>
    <style>
      .cls-1 {
        fill: none;
        stroke: #000;
      }
    </style>
  </defs>
  <title>Asset 5number</title>
  <g id="Layer_2" data-name="Layer 2">
    <g id="Layer_1-2" data-name="Layer 1">
      <g>
        <path class="cls-1" d="M.5,13.11q0-7,1.26-9.81A4.08,4.08,0,0,1,5.6.5a3.24,3.24,0,0,1,2,.61,4.65,4.65,0,0,1,1.3,1.59,10.43,10.43,0,0,1,.79,2.06,18.48,18.48,0,0,1,.46,2.52A46.38,46.38,0,0,1,10.52,13q0,6.69-1.13,9.79T5.5,25.92a3.32,3.32,0,0,1-2.5-1A7.35,7.35,0,0,1,1.44,22a18.7,18.7,0,0,1-.69-3.71A50.11,50.11,0,0,1,.5,13.11Zm3.38,0a32.41,32.41,0,0,0,.41,6.41q.41,1.72,1.2,1.72.52,0,.9-.73A7,7,0,0,0,7,18.23a47.91,47.91,0,0,0,.18-4.91,33.38,33.38,0,0,0-.41-6.58Q6.31,5,5.48,5T4.26,6.76A35.22,35.22,0,0,0,3.88,13.13Z"/>
        <path class="cls-1" d="M12.27,18.66h3.64V25.5H12.27Z"/>
        <path class="cls-1" d="M27.61,25.5H17.39a22,22,0,0,1,1.07-5.71,27.31,27.31,0,0,1,3.34-6.31,17.87,17.87,0,0,0,1.92-3.39,6.48,6.48,0,0,0,.42-2.2A4.12,4.12,0,0,0,23.72,6a1.21,1.21,0,0,0-1-.8A1.23,1.23,0,0,0,21.61,6a8.37,8.37,0,0,0-.56,2.9l-3.41-.55a19.18,19.18,0,0,1,.74-4.5,5.56,5.56,0,0,1,1.51-2.48A3.93,3.93,0,0,1,22.58.5a4.29,4.29,0,0,1,2.8.82A5.4,5.4,0,0,1,27,3.85a11.9,11.9,0,0,1,.57,3.82A14,14,0,0,1,26.87,12a17,17,0,0,1-2.39,4.49q-1,1.43-1.38,2t-.82,1.49h5.32Z"/>
        <path class="cls-1" d="M30.45.92h8.09V6.37H33.06l-.29,3.69a4.56,4.56,0,0,1,1.13-.8A2.52,2.52,0,0,1,35,9q1.84,0,3,2.23a12.24,12.24,0,0,1,1.15,5.62,17.61,17.61,0,0,1-.59,4.58,7.8,7.8,0,0,1-1.67,3.35,3.63,3.63,0,0,1-2.77,1.16A4.37,4.37,0,0,1,32,25.46a4.05,4.05,0,0,1-1.47-1.37,8.42,8.42,0,0,1-1-2.07,17.72,17.72,0,0,1-.63-2.88l3.45-.75A6.57,6.57,0,0,0,33,20.9q.46.86,1.1.86t1.18-1.08a8.58,8.58,0,0,0,.46-3.23,8.23,8.23,0,0,0-.47-3.22q-.47-1-1.25-1a1.33,1.33,0,0,0-1,.49A4.61,4.61,0,0,0,32.27,15l-2.9-.84Z"/>
      </g>
    </g>
  </g>
</svg>
