<svg xmlns="http://www.w3.org/2000/svg" viewBox="0 0 34.37 41.12">
  <defs>
    <style>
      .cls-1 {
        fill: none;
        stroke: #000;
        stroke-miterlimit: 10;
        stroke-width: 1.12px;
      }
    </style>
  </defs>
  <title>Asset 2100</title>
  <g id="Layer_2" data-name="Layer 2">
    <g id="Layer_1-2" data-name="Layer 1">
      <g>
        <path class="cls-1" d="M17.19.56H10.9c-.63.13.59.52.59,1.17v8.66A7.12,7.12,0,0,1,11,13L.65,38.93a1.16,1.16,0,0,0,1,1.63H17.19"/>
        <path class="cls-1" d="M17.19,40.56H32.74a1.16,1.16,0,0,0,1-1.63L23.38,13a7.12,7.12,0,0,1-.5-2.64V1.73c0-.64,1.22-1,.59-1.17H17.19"/>
        <path d="M28.2,24.5H6.66L.57,40.27l33.24-.14ZM24.52,35.42a21.91,21.91,0,0,1-2.66-3.66,1.84,1.84,0,0,1,0-1.77,1.45,1.45,0,0,1-.91.3c-2.07,0-2.07-3.5,0-3.5,1.42,0,1.87,1.65,1.34,2.68l.13-.1a1.57,1.57,0,0,1,2.2.63,17.55,17.55,0,0,0,2.15,2.95C28.25,34.55,26,37,24.52,35.42Z"/>
      </g>
    </g>
  </g>
</svg>
