<svg xmlns="http://www.w3.org/2000/svg" viewBox="0 0 32.04 41">
  <defs>
    <style>
      .cls-1 {
        fill: none;
        stroke: #000;
      }
    </style>
  </defs>
  <title>Asset 12energy</title>
  <g id="Layer_2" data-name="Layer 2">
    <g id="Layer_1-2" data-name="Layer 1">
      <path class="cls-1" d="M19.6.5H31.54V21.87a34.21,34.21,0,0,1-1.17,10.24,11.71,11.71,0,0,1-4.71,6A15.62,15.62,0,0,1,16.6,40.5q-5.84,0-9-1.61a11.48,11.48,0,0,1-5-4.71A18,18,0,0,1,.53,26.52l11.39-1.58a13.53,13.53,0,0,0,.45,3.86,4.2,4.2,0,0,0,1.42,2,3.21,3.21,0,0,0,1.95.51,3.19,3.19,0,0,0,2.93-1.51,10.25,10.25,0,0,0,.93-5.11Z"/>
    </g>
  </g>
</svg>
