<svg xmlns="http://www.w3.org/2000/svg" viewBox="0 0 43.62 44.1">
  <defs>
    <style>
      .cls-1 {
        fill: none;
        stroke: #000;
        stroke-miterlimit: 10;
        stroke-width: 2.22px;
      }
    </style>
  </defs>
  <title>Asset 8force</title>
  <g id="Layer_2" data-name="Layer 2">
    <g id="Layer_1-2" data-name="Layer 1">
      <g>
        <path d="M2.49,25.45A21.72,21.72,0,0,0,3.86,35a12.92,12.92,0,0,0,2.48,3.91A5.64,5.64,0,0,0,8,40.14a2.85,2.85,0,0,0,1.55.23,3.24,3.24,0,0,0,1.27-.69,6.13,6.13,0,0,0,1.1-1.41,13.94,13.94,0,0,0,1.46-3.91A32.22,32.22,0,0,0,14,25.45c-.24-3-.23-6-1-8.8A12.28,12.28,0,0,0,11.47,13a5.57,5.57,0,0,0-1-1.2,3,3,0,0,0-.93-.49,2.22,2.22,0,0,0-1.13.17,5,5,0,0,0-1.4,1,12.77,12.77,0,0,0-2.37,3.65A26.9,26.9,0,0,0,2.49,25.45ZM0,25.45a38,38,0,0,1,.1-5.27,31.69,31.69,0,0,1,1-5.3,17,17,0,0,1,2.41-5.2A9.79,9.79,0,0,1,5.86,7.33,7.42,7.42,0,0,1,9.52,6.06a7.67,7.67,0,0,1,3.85,1,10.84,10.84,0,0,1,2.69,2.2,19.36,19.36,0,0,1,3.22,5.17,30.65,30.65,0,0,1,1.81,5.46,23.34,23.34,0,0,1,.46,5.61,29.49,29.49,0,0,1-2.6,11,18,18,0,0,1-3.31,4.95,10.31,10.31,0,0,1-2.61,2,7.07,7.07,0,0,1-3.51.76,6.86,6.86,0,0,1-3.23-1.21A9.38,9.38,0,0,1,4.2,40.69a17.34,17.34,0,0,1-2.29-5A44.26,44.26,0,0,1,0,25.45Z"/>
        <path d="M25.16,19a21.37,21.37,0,0,0,.51,5,25.4,25.4,0,0,0,1.64,4.64,13.17,13.17,0,0,0,2.58,3.85,5.92,5.92,0,0,0,1.63,1.16,3,3,0,0,0,1.5.22,3.17,3.17,0,0,0,1.25-.63,7.33,7.33,0,0,0,1.17-1.34,15.07,15.07,0,0,0,1.91-3.77,25.92,25.92,0,0,0,1.18-4.42A30.64,30.64,0,0,0,38.92,19a29.52,29.52,0,0,0-.46-4.66A29.62,29.62,0,0,0,37.24,10a15.81,15.81,0,0,0-1.91-3.72A6.55,6.55,0,0,0,34.17,5,2.94,2.94,0,0,0,33,4.46a2.9,2.9,0,0,0-1.32.23,5.68,5.68,0,0,0-1.53,1.1,14.44,14.44,0,0,0-2.58,3.72,23.22,23.22,0,0,0-1.76,4.56A23.59,23.59,0,0,0,25.16,19Zm-.77,0a44,44,0,0,1,.79-10.37,15.4,15.4,0,0,1,2.2-5.14,9.13,9.13,0,0,1,2.19-2.29A6.87,6.87,0,0,1,33,0a7.35,7.35,0,0,1,3.64.93,9.71,9.71,0,0,1,2.55,2.14A15.83,15.83,0,0,1,42.07,8.2,31.86,31.86,0,0,1,43.62,19,33.06,33.06,0,0,1,42,29.79a16.2,16.2,0,0,1-2.86,5.09,9.33,9.33,0,0,1-2.55,2.05,7.13,7.13,0,0,1-3.54.81,6.72,6.72,0,0,1-3.28-1.22,9,9,0,0,1-2.09-2.23,16.8,16.8,0,0,1-2.19-5A46.65,46.65,0,0,1,24.39,19Z"/>
        <line class="cls-1" x1="16.4" y1="22.23" x2="33.02" y2="19.02"/>
      </g>
    </g>
  </g>
</svg>
