<svg xmlns="http://www.w3.org/2000/svg" viewBox="0 0 41.34 41">
  <defs>
    <style>
      .cls-1 {
        fill: none;
        stroke: #000;
        stroke-miterlimit: 10;
      }
    </style>
  </defs>
  <title>Asset 7ohm</title>
  <g id="Layer_2" data-name="Layer 2">
    <g id="Layer_1-2" data-name="Layer 1">
      <path class="cls-1" d="M.67,30.91l2.9,9.59H17c-2.65-5.33-5.55-10.86-6.18-16.88-.55-5.23-.89-11.51,2.4-15.94a11.68,11.68,0,0,1,6.06-4.29C24,2,27.67,6.51,29,10.36c3.67,10.59-.82,20.46-4.92,30.14H37.35l3.32-10.22-2.1-.21L37,34.75l-8.37-.23s5.7-6,6.5-8.14,3.42-7.11,2.28-11.7C36.19,9.88,32.52,4.16,27.92,2.06A17.44,17.44,0,0,0,19,.57C12.8,1,6.55,5.3,4.43,11.35,3.06,15.25,4,21.69,4,21.69s1.48,5.37,3.42,7.55,4.9,5.39,4.9,5.39H3.75L2.65,30.85Z"/>
    </g>
  </g>
</svg>
